<?xml version="1.0" encoding="UTF-8" standalone="no"?>
<!-- Created with Inkscape (http://www.inkscape.org/) -->

<svg
   width="156mm"
   height="236mm"
   viewBox="0 0 156 236"
   version="1.1"
   id="svg1"
   xml:space="preserve"
   sodipodi:docname="backmuscle-final.svg"
   inkscape:export-filename="backmuscle-final.svg"
   inkscape:export-xdpi="96"
   inkscape:export-ydpi="96"
   inkscape:version="1.4.2 (f4327f4, 2025-05-13)"
   xmlns:inkscape="http://www.inkscape.org/namespaces/inkscape"
   xmlns:sodipodi="http://sodipodi.sourceforge.net/DTD/sodipodi-0.dtd"
   xmlns="http://www.w3.org/2000/svg"
   xmlns:svg="http://www.w3.org/2000/svg"><sodipodi:namedview
     id="namedview1"
     pagecolor="#ffffff"
     bordercolor="#000000"
     borderopacity="0.25"
     inkscape:showpageshadow="2"
     inkscape:pageopacity="0.0"
     inkscape:pagecheckerboard="0"
     inkscape:deskcolor="#d1d1d1"
     inkscape:document-units="mm"
     inkscape:zoom="0.76167929"
     inkscape:cx="396.49233"
     inkscape:cy="456.22876"
     inkscape:window-width="1920"
     inkscape:window-height="1057"
     inkscape:window-x="1912"
     inkscape:window-y="-8"
     inkscape:window-maximized="1"
     inkscape:current-layer="svg1" /><defs
     id="defs1" /><g
     id="layer1"
     transform="translate(-27.789474,-29.526316)"><path
       style="fill:#e6e6e6;stroke:#000000;stroke-width:0.564999;stroke-linecap:round;stroke-linejoin:round"
       d="m 95.048683,39.947368 -0.217104,1.215789 0.564472,1.389473 0.173684,1.867106 -0.130263,3.951317 -0.173683,2.692104 -2.735527,1.953947 2.301317,-0.04342 4.428947,-0.260528 5.384214,-0.04342 5.12368,0.04342 5.03684,0.39079 0.86842,-0.08684 -2.86579,-1.997368 -0.2171,-0.998683 -0.17369,-3.73421 -0.34736,-3.864475 0.69473,-0.998683 v -1.519738 l -1.21579,1.25921 -0.95526,2.084211 -0.78158,0.738158 -1.65,-0.738158 -1.56316,-0.868421 -1.95394,-0.694738 -1.65,0.130265 -1.69342,0.39079 -1.650007,0.955262 -1.563155,0.694738 -0.607896,-0.130265 -1.346052,-1.823683 z"
       id="neck" /><path
       style="fill:#e6e6e6;stroke:#000000;stroke-width:0.564999;stroke-linecap:round;stroke-linejoin:round"
       d="m 92.530262,53.017104 -2.90921,1.172369 -3.473685,1.476317 -2.952631,1.476314 0.130262,0.39079 2.171054,0.477631 2.257894,1.25921 2.171054,1.997369 1.476314,1.042106 0.846511,0.521052 2.019278,-0.217104 2.388159,-0.390789 2.257896,-0.217107 2.084212,-0.347369 2.82237,0.08684 5.21052,0.260527 3.99474,0.564475 2.30131,0.303946 1.56316,-0.651314 c 0,0 1.04211,-1.302634 1.34605,-1.476317 0.30395,-0.173683 1.47632,-1.172369 1.47632,-1.172369 l 1.95395,-1.215789 1.43289,-0.564473 1.65,-0.347369 -1.25921,-0.911841 -3.03947,-1.389476 -4.77632,-2.127631 -3.38684,-0.108553 -7.6421,-0.238815 -2.69211,0.02172 -4.906579,0.151974 z"
       id="upper-trapezius" /><path
       style="fill:#e6e6e6;stroke:#000000;stroke-width:0.564999;stroke-linecap:round;stroke-linejoin:round"
       d="m 116.88947,62.222366 -1.30263,2.996054 -1.51974,2.648686 -1.73684,3.821051 -1.43289,3.343421 -0.56448,1.389472 -2.86579,-0.260524 -3.08289,-0.130262 -3.64737,0.04342 -2.95263,0.434211 -0.173686,0.08684 -0.911842,-2.171052 -1.389472,-3.299999 -2.388158,-4.689475 -1.541447,-3.13717 -0.716449,-1.508884 1.584669,1.042106 1.009639,-0.108553 2.203717,-0.303946 2.323029,-0.303948 2.171051,-0.282239 2.453289,-0.130265 4.01645,0.173684 1.64588,0.0823 2.95675,0.330205 1.99737,0.282239 1.15065,0.151971 1.15066,0.151974 z"
       id="traps-middle" /><path
       style="fill:#e6e6e6;stroke:#000000;stroke-width:0.564999;stroke-linecap:round;stroke-linejoin:round"
       d="m 97.697365,76.551313 1.059866,2.862826 1.396999,3.576936 0.73688,2.164586 1.04391,2.379506 0.66012,1.412351 0.81364,0.598715 0.96716,0.0307 1.33559,-1.366298 1.397,-3.454125 0.8597,-2.440913 1.25883,-3.254552 0.84434,-2.183826 0.26149,-0.456176 -2.86579,-0.260522 -1.98364,-0.08382 -1.47617,-0.04196 -1.44677,0.01722 -1.48608,0.0177 -0.78942,0.07046 z"
       id="lower-trapezius" /><path
       style="fill:#e6e6e6;stroke:#000000;stroke-width:0.564999;stroke-linecap:round;stroke-linejoin:round"
       d="m 107.53838,83.536053 -0.22325,4.869209 0.34737,2.86579 1.12895,3.017763 1.82392,4.276974 2.1491,4.059871 0.93355,1.91052 0.39079,1.56316 0.21711,1.62829 0.0651,2.2796 -0.0217,4.03816 0.39079,1.93224 0.56447,0.95526 0.89013,0.97698 3.21316,1.4546 2.12763,1.21579 1.95395,1.51974 1.95395,1.8671 0.95526,1.86711 -0.43421,-3.34342 -0.65132,-3.03948 -0.17368,-2.64868 -0.49934,-3.36921 -0.36844,-4.23706 0.046,-5.38843 0.27633,-2.91682 0.46055,-2.072472 1.02856,-2.48697 1.75009,-3.561585 1.59658,-3.730453 0.59871,-2.13388 0.72153,-2.179937 0.0614,-3.576936 0.16887,-2.087827 0.30703,-2.02642 0.69082,-2.533023 -0.15351,-2.68654 -1.18208,-1.013211 -1.75009,-0.982506 -3.31596,-2.502321 -1.76544,-1.489109 -1.51982,-1.08997 -1.76544,-1.50446 -1.98036,-1.427705 -0.6793,-0.723495 -0.97675,1.140076 -0.43178,0.933812 -0.87085,2.062242 -0.75987,1.324343 -1.62829,3.234867 -0.99808,2.213068 -1.30323,3.04088 -0.56448,1.38947 z"
       id="right-lats" /><path
       style="fill:#e6e6e6;stroke:#000000;stroke-width:0.564999;stroke-linecap:round;stroke-linejoin:round"
       d="m 122.59058,57.993581 0.99028,0.772575 1.73474,1.051589 1.40468,1.082292 2.30538,1.821672 1.30263,1.454605 1.82368,1.845395 1.38948,2.062501 1.43289,2.08421 1.04211,1.65 0.23881,0.521052 -2.19276,-0.499341 -1.54145,-0.195394 -1.28746,-0.336275 -1.46609,-0.99786 -1.91841,-1.278613 -2.27259,-1.71496 -1.76544,-1.489109 -2.40254,-1.842201 -1.8729,-1.466083 -1.32983,-1.0756 -0.33965,-0.361746 1.13277,-0.915049 1.6899,-1.201454 1.69342,-0.890132 z"
       id="right-posterior-deltoid" /><path
       style="fill:#e6e6e6;stroke:#000000;stroke-width:0.564999;stroke-linecap:round;stroke-linejoin:round"
       d="m 136.25526,72.339472 1.10724,0.08684 1.99737,0.195643 0.97697,0.281988 1.25921,0.586184 0.34737,-0.195395 -0.825,-3.538815 -1.69342,-3.430264 -2.23619,-3.169479 -1.71513,-1.454864 -2.49671,-1.801974 -2.12763,-0.976971 -2.08421,-0.998686 -2.40987,-0.43421 -1.60658,-0.04342 -2.1581,0.547531 1.85765,1.298369 1.56971,1.06694 1.37943,1.059921 1.62829,1.302898 1.30263,1.454605 0.91184,0.922697 0.91184,0.922698 2.10592,3.104604 1.2375,1.867107 z"
       id="right-lateral-deltoid" /><path
       style="fill:#e6e6e6;stroke:#000000;stroke-width:0.564999;stroke-linecap:round;stroke-linejoin:round"
       d="m 130.78072,82.937344 1.47992,2.479294 1.82076,2.579079 1.38165,2.026419 1.8729,2.517672 1.50446,2.087825 0.55266,-0.706176 0.73688,-2.947519 0.49126,-3.500178 -0.30703,-2.886112 -0.8904,-2.85541 -1.71939,-2.425562 -2.45626,-3.408069 -2.02642,-3.070331 -0.70066,-1.183539 -0.64373,-0.168138 0.0241,1.681737 0.0768,1.343271 -0.34541,1.26651 -0.49892,2.279721 -0.23795,2.057125 -0.10077,1.99517 z"
       id="right-long-head-triceps" /><path
       style="fill:#e6e6e6;stroke:#000000;stroke-width:0.564999;stroke-linecap:round;stroke-linejoin:round"
       d="m 135.24813,75.898607 1.65736,2.299597 2.05774,1.139177 3.62299,1.535165 1.78079,0.982506 1.65798,1.872904 0.98251,0.951801 1.44305,2.640486 1.65798,2.241344 1.04392,1.074616 -0.15352,-2.087827 -1.50446,-2.794003 -1.41236,-2.947517 -0.89039,-2.30275 -1.28954,-2.241341 -2.11853,-2.425563 -2.1876,-2.347076 -1.25921,-0.586184 -1.97566,-0.37981 -2.10592,-0.18466 -2.19276,-0.499343 -1.54145,-0.195392 0.35033,0.591769 0.35033,0.59177 1.01321,1.535165 z"
       id="right-lateral-head-triceps" /><path
       style="fill:#e6e6e6;stroke:#000000;stroke-width:0.564999;stroke-linecap:round;stroke-linejoin:round"
       d="m 151.07569,89.592289 0.72153,2.179937 -0.36228,1.685964 h -0.52812 l -1.96501,-0.457832 -1.28954,-0.03071 -0.85969,0.488537 -0.33774,1.451922 -0.18422,2.235195 -0.49125,1.074616 -1.01321,0.307033 -1.25884,-0.429847 -1.47376,-0.9211 -1.65798,-1.228132 -1.53517,-1.320244 0.9211,-2.179937 0.36844,-1.473758 0.24563,-1.750089 0.24563,-1.750089 -0.30703,-2.886112 -0.63623,-2.040311 -0.25417,-0.815099 -0.8597,-1.212781 -0.85969,-1.212781 -0.7989,-1.108472 1.02887,0.569587 2.84036,1.337172 1.06204,0.552659 1.63985,0.706176 0.8904,0.491252 0.82899,0.936453 1.32024,1.412353 0.7991,1.039189 0.41368,0.756954 0.72153,1.320242 0.82899,1.120674 1.35095,1.65798 0.52196,0.537308 z"
       id="path10" /><path
       style="fill:#e6e6e6;stroke:#000000;stroke-width:0.564999;stroke-linecap:round;stroke-linejoin:round"
       d="m 140.37558,95.947872 2.30275,3.101041 2.17993,2.824707 1.47377,2.42556 1.65798,2.39486 1.07461,1.9036 1.38165,2.17994 1.63345,2.36415 1.80532,2.08783 2.27205,2.33345 1.71938,1.96502 1.71939,2.08782 1.90361,2.30275 0.89039,1.8422 1.01321,0.49125 1.32024,0.33774 1.62728,-0.15352 0.67547,-0.36844 -1.19743,-2.39486 -1.13602,-2.54837 -1.28954,-2.54838 -1.13602,-1.96501 -1.41236,-2.42556 -1.53516,-2.794 -1.44306,-2.11853 -1.84219,-2.82471 -1.8115,-2.88611 -1.75009,-2.7326 -2.41021,-3.300602 -1.8422,-2.640486 -0.99786,-1.674696 -0.42984,0.244269 -0.16887,0.725961 -0.22964,1.463244 -0.12345,1.497912 -0.24563,0.537308 -0.24562,0.537308 -1.01321,0.307033 -1.25884,-0.429848 -1.47376,-0.921099 z"
       id="right-wrist-flexors" /><path
       style="fill:#e6e6e6;stroke:#000000;stroke-width:0.564999;stroke-linecap:round;stroke-linejoin:round"
       d="m 167.02606,126.06783 1.04391,-1.04391 0.64478,-1.33559 -0.33774,-1.61193 -0.98251,-2.3795 -1.12067,-3.50018 -1.01321,-2.7633 -1.53516,-4.1296 -1.55052,-4.09889 -1.38165,-2.65584 -1.47376,-2.27204 -1.56587,-2.179941 -2.3488,-2.840056 -1.59658,-1.688685 -1.51981,-1.719384 -0.49125,-0.07676 -0.18114,0.842981 -0.18114,0.842981 h -0.52812 l -0.98251,-0.228915 -0.9825,-0.228915 -0.64477,-0.01535 -1.07462,0.228915 0.49893,0.837345 0.49893,0.837348 1.21462,1.740956 1.20532,1.690711 1.39667,1.912629 0.87708,1.28581 1.03126,1.61021 1.1833,1.87642 1.31041,2.06354 0.93789,1.43811 1.50222,2.238 1.66764,2.88009 0.7273,1.28065 1.56107,2.68797 0.80996,1.46065 0.73776,1.45796 1.19135,2.58976 0.669,1.39989 0.57415,1.1483 z"
       id="right-wrist-extensors" /><path
       style="fill:#e6e6e6;stroke:#000000;stroke-width:0.564999;stroke-linecap:round;stroke-linejoin:round"
       d="m 162.38986,125.7608 0.36844,1.11149 0.10746,1.23732 -0.39914,0.62941 -0.67547,0.72153 -0.15352,0.84434 -0.27633,1.56587 0.16887,1.24349 0.0921,1.4584 -0.32239,1.10532 c 0,0 -0.10746,1.12067 -0.13816,1.19743 -0.0307,0.0768 -0.30704,1.12067 -0.30704,1.12067 l 0.16888,1.30489 0.39914,0.42985 0.96715,0.27633 0.84434,-0.4759 0.49126,-0.78293 0.24562,-1.02857 0.13817,-0.66012 0.0768,-1.68868 0.73688,0.4759 0.82899,0.53731 0.0153,0.99786 0.30703,1.73474 0.0921,1.32024 0.33774,1.01321 -0.27633,0.73688 -0.49125,0.41449 -0.46055,0.64477 -0.23028,0.78294 0.70618,1.15137 0.36844,0.32239 0.67547,-1.01321 0.56801,-0.90575 0.73688,-1.05927 0.39915,-0.73688 -0.36844,-1.51981 -0.39915,-1.47376 -0.19957,-1.30489 -0.29168,-0.73688 -1.47376,-0.35309 0.0153,1.01321 0.30703,1.88825 0.0768,1.13603 0.35309,1.04391 -0.30704,0.70618 -0.55265,0.46055 -0.35309,0.52195 -0.27633,0.81364 0.59871,1.16673 0.53731,0.33773 0.0921,1.05927 0.39914,0.52196 0.84434,-0.50661 1.50447,-1.13602 1.15137,-1.04392 0.50661,-1.02856 0.33773,-1.44305 0.39914,-1.397 0.39915,-1.71939 0.0307,-1.56587 0.0154,-1.16672 -0.93645,-2.97823 -0.95181,-2.80935 -0.36844,-1.90361 c 0,0 0.0461,-2.794 0.0307,-2.8554 -0.0153,-0.0614 -0.38379,-1.59658 -0.38379,-1.59658 l -0.58229,-0.51823 -0.26206,0.95575 -0.50661,0.85201 -0.85969,0.8597 c 0,0 -0.67547,0.36844 -0.67547,0.36844 l -1.21787,0.11489 -1.06953,-0.13024 -1.16672,-0.4145 z"
       id="right-hand" /><path
       style="fill:#e6e6e6;stroke:#000000;stroke-width:0.564999;stroke-linecap:round;stroke-linejoin:round"
       d="m 116.19471,117.90987 -2.40984,-0.4125 -0.36908,0.17368 -0.13026,0.97698 -0.45593,0.95526 -0.17368,1.47632 0.32566,1.8671 0.71644,1.15066 3.0829,2.17105 4.01645,2.90921 1.49802,1.78026 1.28092,2.10592 0.71645,2.10593 c 0,0 -0.19539,-3.43027 -0.19539,-3.56053 0,-0.13026 -1.08553,-3.38684 -1.08553,-3.38684 l -0.65132,-2.82237 -1.02039,-2.64869 -0.95526,-1.93223 -0.977,-1.45461 z"
       id="right-gluteus-medius" /><path
       style="fill:#e6e6e6;stroke:#000000;stroke-width:0.564999;stroke-linecap:round;stroke-linejoin:round"
       d="m 124.29276,135.16974 0.0557,1.52144 -0.19957,1.70404 -0.47591,1.38165 -1.08996,1.71938 -2.14923,2.02642 c 0,0 -0.96716,0.4145 -1.18208,0.49125 -0.21493,0.0768 -2.27205,0.70618 -2.27205,0.70618 l -1.87044,0.32792 -2.90921,0.23882 -2.56184,0.0434 -2.75724,-0.4125 -1.19408,-0.65132 -0.99868,-1.23749 -0.62961,-1.4329 -0.0651,-2.04079 -0.0217,-2.77894 -0.0217,-5.1454 v -3.47368 l 0.0434,-3.25658 0.1954,-1.2375 0.45592,-1.30264 0.73816,-1.6717 0.93355,-0.99869 1.17237,-1.0421 1.2375,-0.58619 0.86842,-0.4125 1.19408,-0.19539 1.88881,-0.0651 0.9227,0.19539 -0.3148,1.06382 -0.45593,0.95526 -0.0868,0.73816 0.076,1.67171 0.16283,0.93355 0.71644,1.15066 0.97578,0.68717 1.51073,1.06388 2.01836,1.44996 1.64728,1.19317 1.69621,1.57621 2.02993,2.99605 z"
       id="right-gluteus-maximus" /><path
       style="fill:#e6e6e6;stroke:#000000;stroke-width:0.564999;stroke-linecap:round;stroke-linejoin:round"
       d="m 103.99346,124.90064 -1.04523,-3.31549 -0.9825,-1.62728 -1.41236,-1.16672 -1.535162,-0.82899 -2.272046,-0.55266 -2.241341,0.0307 -0.184221,0.15352 0.307033,1.04391 0.399145,1.50446 v 2.33345 l -0.644771,1.10532 -1.381649,1.10533 -1.504463,1.25883 c 0,0 -1.258837,0.98251 -1.412354,1.13602 -0.153517,0.15352 -2.272046,1.35095 -2.272046,1.35095 0,0 -1.289539,1.38165 -1.50446,1.56587 -0.214924,0.18422 -1.750089,2.39486 -1.750089,2.39486 l -0.644772,1.41235 -0.552659,1.64699 c 0,0 0.399143,2.80499 0.399143,2.95851 0,0.15351 0.644771,1.78079 0.644771,1.78079 l 0.951801,1.47376 1.197431,1.28954 1.443056,0.85969 1.473758,0.58336 1.535168,0.46055 1.381649,0.33774 c 0,0 3.53088,0.18422 3.715102,0.18422 0.184218,0 1.688681,-0.0307 1.688681,-0.0307 l 1.995716,-0.15352 1.719389,-0.46055 1.10532,-0.9211 0.89039,-1.04391 0.55767,-1.17441 -0.0651,-2.04079 -0.0326,-5.35164 z"
       id="left-gluteus-maximus" /><path
       style="fill:#e6e6e6;stroke:#000000;stroke-width:0.564999;stroke-linecap:round;stroke-linejoin:round"
       d="m 94.3206,117.59372 -1.780792,0.0921 -1.381649,0.49125 -1.811496,0.85969 -1.166728,0.9211 -0.890394,1.28954 -1.166728,2.33345 c 0,0 -0.644768,1.99572 -0.675473,2.11853 -0.0307,0.12282 -0.982507,3.46948 -0.982507,3.46948 l -0.675473,1.96501 -0.160414,2.22303 0.0069,1.27165 0.598715,-1.52967 0.742468,-1.30617 0.867341,-1.21009 0.97898,-1.10464 1.380384,-1.26907 1.522042,-0.88988 0.827662,-0.62927 0.942459,-0.74475 0.752231,-0.62942 1.147257,-0.94544 0.741368,-0.5931 0.56764,-0.74886 0.322387,-0.55266 -0.09031,-2.67385 -0.308832,-1.16406 z"
       id="left-gluteus-medius" /><path
       style="fill:#e6e6e6;stroke:#000000;stroke-width:0.564999;stroke-linecap:round;stroke-linejoin:round"
       d="m 100.52267,84.073367 -0.11149,2.030579 0.21711,2.257896 -0.32566,2.388158 -1.541446,4.146709 -1.910527,4.407238 -1.042104,1.975653 -1.280922,2.54014 -0.846712,1.78026 -0.217104,2.2796 0.06513,3.4954 -0.0217,3.14803 -0.412501,1.4546 -0.825,1.33359 -0.420754,0.62022 -2.502318,1.10532 -1.940086,0.74021 -2.192761,1.62829 -1.736844,1.34605 -1.736841,2.10593 -0.195395,-0.80329 0.673026,-2.40987 0.564475,-4.51708 0.564208,-3.58095 0.130527,-5.21052 0.02172,-3.62566 -0.151974,-2.95263 -0.651316,-3.234872 -1.063816,-2.670394 -1.584867,-2.670395 -1.085527,-2.930922 -0.998683,-2.996052 -1.128948,-3.625659 0.455922,-1.346052 -0.130265,-1.975657 -0.542764,-3.039475 -0.49934,-2.279605 -0.08684,-3.104605 0.586182,-0.738158 1.259213,-0.694738 3.864472,-2.735524 3.973026,-3.061184 3.321711,-2.692107 0.890133,-0.694737 1.113202,0.785791 1.112126,2.812727 1.307404,2.622434 1.3882,2.725922 1.158013,2.559704 0.89704,2.131679 1.10136,2.469743 1.453383,3.827502 z"
       id="left-lats" /><path
       style="fill:#e6e6e6;stroke:#000000;stroke-width:0.564999;stroke-linecap:round;stroke-linejoin:round"
       d="m 85.49605,58.010525 -1.649998,0.998685 -1.932238,1.259211 -3.625657,3.061184 -1.780262,2.127631 -2.084211,2.323026 -1.62829,2.583553 -1.042104,1.346051 v 0.694738 l 2.214472,-0.347369 1.780022,-0.651314 0.86868,-0.260527 2.222068,-1.37631 3.86728,-2.79799 3.628443,-2.820506 2.700631,-2.188747 0.890114,-0.694737 -1.085527,-0.998686 -1.631051,-1.302917 z"
       id="left-posterior-deltoid" /><path
       style="fill:#e6e6e6;stroke:#000000;stroke-width:0.564999;stroke-linecap:round;stroke-linejoin:round"
       d="m 83.259865,57.337499 -2.420728,0.39053 -3.484533,0.955522 -2.713816,1.237501 -2.757236,1.953948 -2.040789,2.236184 -1.65,2.475 -0.998686,2.192763 -0.911841,2.583553 -0.08684,2.10592 0.477631,-0.04342 0.716447,-0.477631 1.693423,-0.499343 2.14934,-0.08684 0.521055,0.04342 v -0.69474 l 1.042104,-1.346049 1.514639,-2.403229 1.629833,-1.870237 c 0,0 2.348291,-2.760744 2.348291,-2.760744 l 2.295162,-1.937832 2.296613,-1.752957 2.616118,-1.628291 z"
       id="left-lateral-deltoid" /><path
       style="fill:#e6e6e6;stroke:#000000;stroke-width:0.564999;stroke-linecap:round;stroke-linejoin:round"
       d="m 66.195394,73.46842 -1.867106,1.997368 -1.867104,2.257896 -1.628291,2.583553 -0.846709,1.823683 -0.80329,2.323026 c 0,0 -1.65,2.670394 -1.693421,2.757236 -0.04342,0.08684 -0.868421,2.540132 -0.868421,2.540132 l -0.02172,0.825 1.519737,-1.801974 1.953948,-3.039472 2.366447,-2.778948 1.367763,-1.367763 2.149343,-0.825 3.451974,-1.498026 3.321709,-3.603948 3.017522,-4.255262 -1.780024,0.651314 -1.107233,0.173683 -1.107237,0.173686 -1.08373,-0.02069 -1.586664,0.06411 -0.846712,0.249671 -0.846712,0.249671 z"
       id="left-lateral-head-triceps" /><path
       style="fill:#e6e6e6;stroke:#000000;stroke-width:0.564999;stroke-linecap:round;stroke-linejoin:round"
       d="m 75.747784,71.405921 -1.508771,2.127631 -1.50876,2.127631 -1.877951,2.724671 -1.758553,2.420723 -1.28092,2.670395 -0.445066,1.986513 -0.05428,3.104607 0.445067,2.768092 0.987827,2.996052 h 0.488487 l 2.399014,-3.365132 2.51842,-3.549671 2.388159,-3.430262 0.749032,-1.704277 -0.130267,-1.975657 -0.542764,-3.039475 -0.433107,-1.977247 -0.153127,-2.755649 0.151897,-1.25921 z"
       id="left-long-head-triceps" /><path
       style="fill:#e6e6e6;stroke:#000000;stroke-width:0.564999;stroke-linecap:round;stroke-linejoin:round"
       d="m 68.746377,94.332236 -1.715394,1.738453 -1.233768,1.19743 -1.381649,0.73688 -1.320242,0.552659 -0.859694,-0.153516 -0.583362,-0.583364 -0.0307,-1.166725 -0.06141,-1.565871 -0.368437,-1.289539 -0.276331,-0.614066 -0.951804,-0.291682 -1.105318,0.214923 -1.504463,0.153517 -1.036969,0.01535 -0.221869,-1.151377 0.07676,-1.151374 0.427609,-0.397626 1.054324,-1.25013 1.790412,-2.612954 1.142423,-1.581343 1.033246,-1.21335 2.012799,-2.155687 1.24936,-0.587193 1.697445,-0.68276 1.598755,-0.693798 1.230445,-0.533966 0.643832,-0.698535 0.799928,-0.180742 -0.879277,1.210361 -1.232712,1.947187 -0.927484,1.93357 -0.451432,2.35064 -0.04086,2.337033 0.278122,2.177098 0.653806,2.492467 z"
       id="left-medial-head-triceps" /><path
       style="fill:#e6e6e6;stroke:#000000;stroke-width:0.564999;stroke-linecap:round;stroke-linejoin:round"
       d="m 67.88868,95.201461 -2.091465,3.079869 -2.886112,3.56158 -3.16244,5.18887 -2.272046,3.65369 -2.732596,3.7458 -2.548376,2.79401 -2.886112,2.97822 -1.780792,2.14923 -1.903608,2.78698 -0.736878,1.02023 -2.031677,0.45585 -1.194078,-0.0977 -0.857567,-0.45592 0.75987,-1.85625 1.346052,-2.50757 1.584867,-3.14802 1.063818,-1.96481 1.150657,-2.09506 1.801974,-3.07204 1.226645,-1.81283 1.671709,-2.55099 1.335199,-2.21447 2.257893,-3.41941 2.713816,-3.821049 1.519737,-2.333882 1.202317,-2.227053 0.614069,0.452874 0.260633,0.735679 0.252722,1.033126 0.05466,1.393638 0.0307,1.166725 0.29168,0.291682 0.721529,0.36844 0.694394,-0.03398 0.73421,-0.307345 1.703134,-0.871453 1.064554,-1.033201 z"
       id="left-wrist-flexors" /><path
       style="fill:#e6e6e6;stroke:#000000;stroke-width:0.564999;stroke-linecap:round;stroke-linejoin:round"
       d="m 56.133346,91.549621 -1.292556,1.206627 -2.822369,3.117435 -2.257895,2.474999 -1.389473,2.192768 -1.715132,2.90921 c 0,0 -0.955263,2.12763 -1.063816,2.14934 -0.108553,0.0217 -1.367763,3.12632 -1.367763,3.12632 l -1.324343,3.88618 -1.25921,3.38684 -0.911842,2.86579 -1.107236,3.1046 -0.607896,1.51974 0.803291,1.62829 0.987827,0.94441 0.75987,-1.85625 1.531334,-2.8756 1.654635,-3.25105 1.744861,-3.19814 3.243183,-5.27554 1.671709,-2.55099 2.464144,-3.92418 3.452675,-4.981506 2.093788,-3.223882 1.018355,-1.886296 -0.475901,-0.145841 -1.105318,0.214921 -1.504463,0.153519 -0.518485,0.0077 -0.518486,0.0077 z"
       id="left-wrist-extensors" /><path
       style="fill:#e6e6e6;stroke:#000000;stroke-width:0.564999;stroke-linecap:round;stroke-linejoin:round"
       d="m 44.888255,126.15994 -0.03431,1.58479 0.564472,0.91185 0.78158,1.15066 0.260527,1.58486 -0.260527,1.78027 -0.02172,1.62829 0.499343,1.95394 0.195395,2.27961 -0.260527,0.60789 -0.955263,0.34737 -0.673028,0.0868 -0.759868,-0.95527 -0.43421,-1.80197 -0.02172,-2.0625 -0.976974,0.75987 -0.825,0.45592 -0.06513,2.01908 -0.325657,1.67171 -0.347369,1.17237 1.020395,1.25921 0.43421,1.15065 -0.36908,1.17237 -0.716447,0.69474 -0.369078,-0.95527 -0.651317,-0.80328 -0.781579,-1.41119 -0.564473,-0.69474 0.607894,-2.2796 0.43421,-1.8671 0.08684,-0.67303 1.65,-0.32566 -0.02172,1.97566 -0.716447,2.6921 0.586185,0.80329 0.455919,0.54276 0.412501,1.17237 -0.521052,1.25921 -0.651316,0.58619 0.08684,0.97697 -0.564472,0.4125 -3.734211,-2.90921 -1.498028,-6.38289 -0.02172,-1.17237 2.127631,-7.18618 0.303948,-4.62435 0.759867,-1.25921 0.803291,1.62829 0.987827,0.94441 0.857568,0.45592 1.194077,0.0977 z"
       id="left-hand" /><path
       style="fill:#e6e6e6;stroke:#000000;stroke-width:0.564999;stroke-linecap:round;stroke-linejoin:round"
       d="m 81.740138,124.85724 -0.434218,1.49802 -0.06513,2.09507 -0.553617,2.84408 -1.031251,2.73552 -0.770723,3.52796 -0.466778,2.61612 -0.521052,3.16974 -0.423354,2.92006 -0.55362,4.77632 -0.445066,4.70033 -0.04342,3.72335 v 2.60527 l 0.119409,4.3421 0.347369,4.27698 0.521052,3.77763 0.510196,2.60526 0.803291,3.91875 0.825,2.75724 0.716447,1.44375 0.749014,1.05296 0.66217,0.56447 0.955265,0.0543 0.727302,-0.75987 0.803289,-1.34605 0.933553,-2.9852 0.455919,-1.69342 0.629608,-3.0829 0.640458,-2.74638 0.564476,-2.75724 0.43421,-3.35427 0.575328,-3.38684 0.358225,-3.10461 0.336513,-3.91875 0.347366,-3.23487 0.358225,-3.3 0.07599,-2.77894 0.141118,-3.33257 0.214361,-0.45261 -1.038083,-0.33734 -1.526741,-0.669 -1.119573,-0.66698 -0.817544,-0.88043 -0.855787,-1.14599 -1.010412,-2.14736 -0.290105,-1.76445 -0.232368,-2.1055 0.289399,-0.28238 0.03746,-1.88641 0.116054,-1.60827 0.461801,-1.34342 0.639747,-2.1212 0.853316,-2.91188 0.687091,-1.79352 0.573159,-1.14632 0.730263,-1.2149 0.445196,-0.64477 0.342582,-0.27046 -0.497644,-0.14633 -0.618286,0.2359 -0.833549,0.61897 -1.534702,1.14532 -0.952516,0.7382 -1.008803,0.92778 -0.468456,0.59703 -0.48736,0.59093 z"
       id="left-lateral-hamstring" /><path
       style="fill:#e6e6e6;stroke:#000000;stroke-width:0.564999;stroke-linecap:round;stroke-linejoin:round"
       d="m 89.273686,156.10955 -0.287787,7.00952 -0.437523,4.35987 -0.19957,3.10103 -0.284007,3.79954 -0.267433,5.20996 -0.173683,4.95 0.521052,3.38684 1.128948,1.82369 1.519738,0.30394 1.519735,-0.69473 1.476316,-1.86711 1.259211,-2.64868 0.781579,-4.42895 1.215789,-5.81842 1.606579,-6.38289 1.78026,-6.6 0.56448,-3.25658 -0.39079,-2.43158 -1.17237,-2.7232 -0.911842,-1.61891 -0.08684,-2.43158 -0.347369,-2.95263 -0.298085,-0.84916 -3.146544,-0.0377 -2.257237,-0.11583 -2.149234,-0.56802 -0.214358,0.45263 -0.141118,3.33257 -0.07599,2.77894 z"
       id="left-medial-hamstring" /><path
       style="fill:none;stroke:#000000;stroke-width:0.564999;stroke-linecap:round;stroke-linejoin:round"
       d="m 84.638487,183.264 1.856248,-3.1969 0.39079,-0.34736 0.824997,2.34473 v 0"
       id="path29" /><path
       style="fill:none;stroke:#000000;stroke-width:0.564999;stroke-linecap:round;stroke-linejoin:round"
       d="m 95.048683,184.84342 -0.482455,3.18371 -0.767585,2.3093 -1.166725,2.23479 c 0,0 -1.921987,2.30276 -2.112368,2.42557 -0.19038,0.12281 -0.251788,2.54837 -0.251788,2.54837 l 0.46055,4.5748 -0.675473,-0.30704 -1.28954,-1.25883 -1.995715,-0.36844 -1.412354,0.70618 -1.166725,0.52195 -1.289539,-0.21492 -1.013211,-0.49125 -1.28954,-1.71939 -2.149231,-1.75009 -1.535166,-0.49125 -0.491254,0.52195 -0.09211,-1.01321 0.859692,-2.57907 0.368441,-4.11425 1.176639,-8.5725 1.183222,3.47911 1.107239,1.77484 0.66217,0.56447 0.477631,0.0272 0.841285,-0.35279 0.765294,-1.05296 0.58592,-1.54743 0.701844,-1.3404 0.508778,-0.87624 0.928124,-1.59845 0.390792,-0.34736 0.412499,1.17236 0.381052,2.06865 c 0,0 -0.05539,1.57872 -0.05539,1.57872 l 0.260527,1.69342 0.260527,1.69342 0.564473,0.91184 0.564475,0.91185 0.759868,0.15197 0.75987,0.15197 0.759867,-0.34737 1.498026,-1.28092 0.738156,-0.93355 z"
       id="path30" /><path
       style="fill:#e6e6e6;stroke:#000000;stroke-width:0.564999;stroke-linecap:round;stroke-linejoin:round"
       d="m 76.420564,197.26883 -0.694248,1.64301 -0.78158,2.30132 -0.607896,2.43158 -0.477631,2.21447 -0.217104,2.64868 -0.08684,2.56184 0.08684,3.34343 0.303946,2.6921 0.998685,2.73553 1.101217,1.69342 1.069835,0.34737 0.955265,0.0434 1.042104,-0.825 1.215789,-1.78027 1.21579,-2.51842 0.607896,-2.17105 0.43421,-1.99737 0.477631,-2.56184 0.303948,-3.86447 -0.390789,-2.30132 -0.769491,-2.41472 -0.322386,-0.78293 -0.915573,-1.22077 -1.180883,-1.15568 -1.342315,-1.09303 -0.767583,-0.24563 -0.767583,-0.24562 z"
       id="left-soleus" /><path
       style="fill:#e6e6e6;stroke:#000000;stroke-width:0.564999;stroke-linecap:round;stroke-linejoin:round"
       d="m 90.728312,202.11996 0.195371,2.08925 0.260527,3.25658 0.311685,3.40462 c 0,0 0.184219,1.53516 0.184219,1.65797 0,0.12282 0.0307,2.17994 0.0307,2.17994 0,0 -0.0307,1.62728 -0.0307,1.8729 0,0.24563 -0.614067,1.90361 -0.614067,1.90361 l -0.736877,1.28954 -0.9211,1.62727 -1.19743,0.80584 -1.258837,0.17667 -0.982506,-0.17667 -1.28954,-0.80584 c 0,0 -0.736878,-1.78079 -0.736878,-2.02641 0,-0.24563 -0.291959,-3.00893 -0.291959,-3.00893 l -0.199295,-3.59229 -0.282789,-4.02989 0.0042,-3.68822 0.800555,-2.65346 0.214921,-0.98866 1.872903,-0.87504 0.706176,-0.35309 0.997858,0.18422 0.997857,0.18422 1.289542,1.25883 z"
       id="left-gastrocnemius" /><path
       style="fill:none;stroke:#000000;stroke-width:0.564999;stroke-linecap:round;stroke-linejoin:round"
       d="m 89.408068,221.40164 -0.09211,1.26501 -0.736878,2.02025 -0.890397,2.70189 -0.982506,3.34666 -0.552659,2.11853 c 0,0 -0.491254,2.11853 -0.552662,2.24134 -0.0614,0.12282 -0.644768,1.68869 -0.644768,1.68869 l -1.596573,0.49125 -1.719386,0.46055 -1.965013,-0.18422 -1.535166,-0.27633 -1.780791,-0.64477 -0.73688,-0.70618 -0.307033,-3.43877 -0.214924,-4.05284 -0.214924,-2.67118 -0.521957,-3.77651 -0.153516,-2.30275 -0.263874,-2.577 0.499343,1.36776 1.049951,2.21448 0.550608,0.84671 1.069835,0.34737 0.955265,0.0434 1.042104,-0.825 1.215789,-1.78027 0.607894,-1.25921 0.607896,-1.25921 1.016492,-0.88019 0.325107,-0.42984 0.258257,0.10746 c 0,0 0.466987,0.0585 0.471233,0.13501 0.0043,0.0765 0.111385,1.36369 0.119206,1.43962 0.0078,0.0759 0.120068,1.18823 0.127455,1.26428 0.0074,0.076 0.08039,0.9376 0.08039,0.9376 l 0.73688,2.02641 0.644769,0.40292 0.644771,0.40292 1.611925,0.0883 z"
       id="path33" /><path
       style="fill:#e6e6e6;stroke:#000000;stroke-width:0.564999;stroke-linecap:round;stroke-linejoin:round"
       d="m 103.05569,143.29239 0.29169,1.53517 c 0,0 0,1.87291 -0.0614,1.99572 -0.0614,0.12281 -0.49125,3.43877 -0.49125,3.43877 l -0.46055,2.67119 -0.58337,3.40807 -0.75343,2.01527 -0.1954,-1.21579 -0.19539,-1.21579 -0.850193,-1.97484 -0.7781,-1.55782 -0.455919,-0.80945 -0.08684,-2.43158 -0.173684,-1.47632 -0.322728,-1.90089 -0.149042,-0.42458 0.99786,-0.0768 1.857556,-0.30704 0.85969,-0.23027 1.10532,-0.9211 z"
       id="left-inner-thigh" /><path
       style="fill:#e6e6e6;stroke:#000000;stroke-width:0.564999;stroke-linecap:round;stroke-linejoin:round"
       d="m 104.37336,142.31248 -0.0323,2.45368 0.38796,1.9036 0.0921,2.51768 0.17886,2.14923 0.65013,3.25455 0.58336,2.88611 0.46055,1.8422 0.15351,-1.56587 0.52196,-1.81149 0.0384,-0.48358 0.53731,-1.45073 1.02856,-1.46609 0.42217,-2.27972 0.0921,-2.51767 0.18422,-1.44306 1.24683,-0.99278 -1.28092,0.0217 -1.37862,-0.20625 -1.37862,-0.20625 -1.19408,-0.65132 -0.99868,-1.23749 z"
       id="right-inner-thigh" /><path
       style="fill:#e6e6e6;stroke:#000000;stroke-width:0.564999;stroke-linecap:round;stroke-linejoin:round"
       d="m 75.622279,235.92431 0.27772,2.094 -0.04342,1.96985 -0.173683,2.475 -0.531908,2.26874 -0.575331,1.31349 -3.40855,3.40855 -0.998686,0.0217 -0.933553,1.08552 -1.085525,-0.10855 -1.671711,1.8454 0.06513,1.15065 0.846709,0.67303 5.861844,1.4546 1.150657,1.17237 1.823685,1.10724 1.845395,0.56447 3.278288,-0.10855 1.65,-0.91184 0.998685,-1.21579 0.151972,-3.25658 -0.08684,-5.23224 0.369081,-1.58487 -0.303948,-2.04078 0.195395,-2.93093 0.542763,-2.75723 0.08964,-1.59757 -0.798288,0.24562 -1.657979,0.4759 -0.859692,0.23028 -0.982507,-0.0921 -0.982506,-0.0921 -1.535168,-0.27633 -0.890395,-0.32239 -1.258834,-0.67547 z"
       id="left-foot" /><path
       style="fill:#e6e6e6;stroke:#000000;stroke-width:0.564999;stroke-linecap:round;stroke-linejoin:round"
       d="m 126.39866,125.83421 0.17371,1.12895 0.0217,1.43289 0.10856,0.97698 0.26052,0.91184 0.73816,2.40987 0.825,3.01776 0.34737,1.60658 0.36908,2.45329 0.84671,4.25526 0.45592,3.14803 0.4125,3.64033 0.32566,3.56756 0.28224,7.22961 -0.23882,6.10065 -0.62961,5.27566 -0.71644,3.75592 -0.69474,3.4954 -0.34737,2.19276 -1.08553,2.0625 -0.49934,1.36777 -0.91184,0.75986 -0.36908,0.4125 -0.71644,-0.0434 -1.4329,-1.73684 -1.71513,-5.25395 -1.51974,-7.14276 -1.19408,-5.86184 -0.6296,-5.34079 -0.43421,-6.20921 -0.45593,-5.16711 -0.34736,-5.05855 -0.005,-0.699 0.87066,-0.26876 1.22931,-0.43037 1.21801,-0.77914 1.26952,-1.19697 1.14419,-1.56854 0.55623,-1.19289 0.33774,-1.54284 0.0719,-1.61274 -0.10215,-2.07479 -0.12109,-2.24646 -0.20765,-0.70462 -0.56891,-1.74963 -0.63462,-2.34378 -0.32566,-1.41118 -0.5102,-1.32435 -0.51019,-1.32434 -0.47764,-0.96612 -0.47763,-0.96611 -0.4885,-0.72731 -0.24973,-0.42335 0.82505,0.30394 1.06381,0.6079 0.56366,0.4384 0.41332,0.32147 0.97697,0.75987 0.97698,0.93355 0.97698,0.93355 0.47762,0.93355 z"
       id="right-lateral-hamstring" /><path
       style="fill:#e6e6e6;stroke:#000000;stroke-width:0.564999;stroke-linecap:round;stroke-linejoin:round"
       d="m 106.69402,159.31953 0.64282,2.0331 0.65132,2.30132 0.60789,2.73552 1.17237,3.73421 0.86842,3.03948 0.95526,4.6569 1.05296,6.3829 1.38707,3.39433 1.44306,1.93431 1.86494,0.42984 1.45102,-0.39914 0.9825,-1.75009 0.39915,-4.26571 -0.12282,-5.77428 -0.55525,-10.77483 -0.75796,-7.17636 -0.22112,-3.16201 -0.6149,-8.15902 -0.27562,-3.62777 -0.002,-0.3495 -2.51341,0.52529 -1.45461,0.11941 -2.10304,0.13039 -0.63248,0.0107 -0.62343,0.49639 -0.62341,0.49639 -0.18422,1.44306 -0.0921,2.51767 -0.21109,1.13986 -0.21108,1.13986 -0.51428,0.73304 -0.78294,1.45841 -0.28785,0.96716 -0.54116,2.05328 z"
       id="right-medial-hamstring" /><path
       style="fill:none;stroke:#000000;stroke-width:0.564999;stroke-linecap:round;stroke-linejoin:round"
       d="m 112.64506,184.20296 0.46678,3.63651 1.10724,3.25658 2.6921,3.40855 0.73816,1.15066 -0.15197,3.9079 -0.34737,2.84407 1.36776,-1.49802 1.30263,-0.67303 1.25922,-0.10855 1.08552,0.26053 0.86842,0.65131 0.54276,0.4125 1.0179,-0.30395 1.13145,-0.49934 1.91052,-1.80197 1.36777,-1.15066 0.78157,-0.58618 0.89014,-0.23882 0.825,0.13026 -0.45592,-1.30263 -0.56448,-3.06118 -0.26052,-4.03816 -0.34737,-2.75724 -0.32566,-2.34473 -0.26053,-3.25658 -0.34737,2.19276 -0.74268,1.41109 -0.59252,1.33529 -0.24967,0.68389 -0.91184,0.75986 -0.18454,0.20625 -0.54276,0.18455 -0.35822,-0.0217 -0.71645,-0.86842 -0.71645,-0.86842 -1.2375,-2.14936 -0.93355,-2.40987 -0.58618,-0.89013 -0.47763,0.0434 -0.58841,4.47013 -0.17224,1.84071 -0.15452,1.65137 -0.49125,0.87505 -0.49125,0.87504 -1.45102,0.39914 -0.93247,-0.21492 -0.93247,-0.21492 -0.72153,-0.96715 -1.04839,-1.76701 -0.76187,-1.86441 z"
       id="path39" /><path
       style="fill:#e6e6e6;stroke:#000000;stroke-width:0.564999;stroke-linecap:round;stroke-linejoin:round"
       d="m 117.15,202.40723 -0.41598,2.87517 -0.24562,3.19315 -0.30704,2.80935 v 3.2699 l 0.30704,3.19315 1.16672,2.33345 1.35095,1.8422 0.98251,0.74305 h 1.41235 l 1.59657,-0.43602 0.79829,-2.33345 0.45355,-4.3985 0.30395,-5.03684 -0.1954,-5.25395 -0.17368,-2.36645 -0.6079,-1.38947 -0.97697,-0.73816 -1.51973,-0.58618 -0.62961,0.0543 -0.62961,0.0543 -0.65132,0.33651 -0.65131,0.33652 -0.68388,0.74901 z"
       id="right-gastrocnemius" /><path
       style="fill:#e6e6e6;stroke:#000000;stroke-width:0.564999;stroke-linecap:round;stroke-linejoin:round"
       d="m 131.50066,197.00131 0.56447,1.93224 0.65132,1.86711 0.60789,2.38815 0.54276,2.58356 0.1954,2.2796 0.2171,4.21184 -0.4125,2.86579 -0.54276,2.71382 -0.54276,1.95395 -0.62961,1.02039 -0.73816,0.58618 -0.99868,0.28224 -1.08553,-0.17368 -1.30263,-1.04211 -1.43289,-2.51842 -0.69474,-2.95263 -0.65131,-3.16974 -0.41224,-2.90921 v -4.03816 l 0.15171,-1.99736 0.73816,-2.23619 0.95526,-0.90099 1.28156,-1.17549 1.43225,-1.16924 0.39079,-0.29309 0.89014,-0.23882 z"
       id="right-soleus" /><path
       style="fill:none;stroke:#000000;stroke-width:0.564999;stroke-linecap:round;stroke-linejoin:round"
       d="m 133.59572,216.48651 0.0109,4.15757 -0.49935,4.42894 -0.65131,5.34079 -0.34737,5.99211 -1.28092,0.32566 -1.19408,0.54276 -1.93224,0.34737 -2.25789,0.0434 -1.93224,-0.67303 -0.86842,-0.32566 -2.2796,-8.70592 -2.21448,-6.33947 -0.49356,-1.53965 1.35095,1.8422 0.98251,0.74305 h 0.70617 l 1.50446,-0.21801 0.79829,-0.21801 0.39914,-1.16673 0.53938,-2.52671 0.22777,-2.2089 0.0855,-0.82961 0.58645,-0.0434 0.73789,0.54276 0.67303,0.47763 0.63906,1.989 0.70985,1.24761 1.08266,1.27918 0.65132,0.52106 1.58487,0.0326 0.86842,-0.43421 0.68388,-0.80329 0.58619,-1.48717 0.36156,-1.42788 z"
       id="path42" /><path
       style="fill:#e6e6e6;stroke:#000000;stroke-width:0.564999;stroke-linecap:round;stroke-linejoin:round"
       d="m 122.6428,236.66642 0.21707,1.49805 0.45592,1.82369 0.28224,2.51842 -0.0868,2.40986 0.0651,2.01908 0.36908,1.34606 -0.15197,3.97302 -0.23882,3.51711 0.89013,1.69342 1.69343,0.84671 2.04079,0.19539 1.97565,-0.0651 1.34606,-0.47763 2.25789,-1.28092 1.04211,-1.0204 3.05725,-0.9177 2.10318,-0.53731 1.25883,-0.67547 0.0768,-1.397 -0.69083,-0.8904 -0.76758,-0.59871 -0.9825,-0.19958 -0.42985,0.0307 -0.46055,-0.78294 -0.8904,-0.18422 -1.07461,-0.56801 -1.76544,-1.76544 -1.59658,-1.88825 -0.32238,-2.42557 -0.33774,-3.33131 0.13037,-3.12603 -1.28092,0.32566 -1.19408,0.54276 -0.96612,0.17368 -0.96612,0.17369 -1.12895,0.0217 -1.12894,0.0217 -0.96612,-0.33651 -0.96612,-0.33652 z"
       id="right-foot" /><path
       style="fill:#e6e6e6;stroke:#000000;stroke-width:0.564999;stroke-linecap:round;stroke-linejoin:round"
       d="m 103.89236,89.561582 0.48358,0.01534 0.38653,-0.395422 0.72281,-0.739426 0.48375,-0.868137 0.63186,-1.562291 0.50764,-1.255146 0.40415,-0.659887 -0.0552,1.203346 -0.0711,1.550779 -0.0284,1.908363 0.17855,1.473049 0.12593,1.038892 0.46398,1.240255 1.57693,3.915995 1.4447,3.144895 1.08568,2.050953 0.99745,1.95777 0.66217,1.73684 0.41251,2.40987 0.0326,1.1398 0.0217,3.15888 -0.0108,2.01908 0.39079,1.93224 0.56447,0.95525 0.44506,0.48849 0.44507,0.48849 -1.20492,-0.20625 -1.20492,-0.20624 -1.1072,-0.10855 -0.94441,0.0326 -1.54144,0.13026 -1.03125,0.30393 -1.05296,0.49936 -0.61875,0.29309 -0.58619,0.52105 -1.05296,1.0204 -0.46677,0.49934 -0.73816,1.6717 -0.22796,0.65132 -0.32566,1.27007 v 0 l -0.62032,-1.03899 -0.52261,-1.65775 -0.9825,-1.62728 -1.41236,-1.16672 -0.767585,-0.41449 -0.76758,-0.4145 -1.136023,-0.27633 -1.136023,-0.27633 -1.120671,0.0153 -1.304891,0.16887 -1.780794,0.0921 -0.480441,-0.0645 0.622879,-0.97691 0.412499,-0.66679 0.412501,-1.4546 0.01085,-1.57402 0.01085,-1.57401 -0.03257,-1.7477 -0.03257,-1.7477 0.108553,-1.1398 0.108553,-1.1398 0.423355,-0.89013 0.423357,-0.89013 0.640461,-1.27007 0.640461,-1.27007 1.042104,-1.975661 0.955262,-2.203617 0.548788,-1.265957 0.406477,-0.937662 0.770723,-2.073354 v 0 l 0.770725,-2.073355 0.16283,-1.19408 0.16283,-1.194078 -0.10855,-1.128948 -0.10856,-1.128948 0.0558,-1.015291 0.0557,-1.015288 0.36844,1.082294 0.52195,1.189752 0.85202,1.89593 0.33006,0.706175 0.81364,0.598715 z"
       id="lower-back" /></g></svg>
