<?xml version="1.0" encoding="UTF-8" standalone="no"?>
<!-- Created with Inkscape (http://www.inkscape.org/) -->

<svg
   width="210mm"
   height="297mm"
   viewBox="0 0 210 297"
   version="1.1"
   id="svg1"
   xml:space="preserve"
   xmlns="http://www.w3.org/2000/svg"
   xmlns:svg="http://www.w3.org/2000/svg"><defs
     id="defs1" /><g
     id="layer1"
     style="fill:#cccccc"><path
       style="fill:#cccccc;stroke:#000000;stroke-width:0.564999;stroke-linecap:round;stroke-linejoin:round"
       d="m 103.62371,39.392359 -0.33774,1.995718 0.0307,11.29882 -0.64477,1.535168 -1.35094,1.166725 4.05284,-0.122815 1.65798,0.122815 1.75008,0.644771 0.98251,0.460549 1.10532,1.197428 0.8904,1.289539 0.73688,-1.105318 0.89039,-1.10532 1.19743,-0.706176 1.10532,-0.491252 2.08783,-0.307036 2.88611,-0.0614 1.53517,-0.03071 -1.10532,-0.706175 -0.73689,-0.890397 -0.18421,-1.872901 0.0307,-2.39486 -0.0614,-5.403784 -0.0614,-4.636201 -0.79829,0.982506 -1.44306,1.381649 -2.11853,1.412351 -2.27204,0.82899 -1.32024,0.276331 -1.50447,-0.0307 -2.02642,-0.767586 L 106.60194,42.24777 105,40.988932 104.11496,39.975723 Z"
       id="neck" /><path
       style="fill:#cccccc;stroke:#000000;stroke-width:0.564999;stroke-linecap:round;stroke-linejoin:round"
       d="m 120.17793,47.059299 1.24904,0.942673 1.63194,1.461077 1.99571,0.798288 2.51768,1.043911 2.02641,0.798287 1.47377,1.043914 0.89039,0.798285 0.18422,0.583364 -1.8729,-0.06141 -1.59657,0.245625 -2.17994,0.307034 -1.32024,0.429847 -0.79829,0.614066 -2.17993,-0.8904 -1.10532,-0.706172 -0.73689,-0.890397 -0.18421,-1.872904 z"
       id="upper-trapezius-left" /><path
       style="fill:#cccccc;stroke:#000000;stroke-width:0.564999;stroke-linecap:round;stroke-linejoin:round"
       d="m 103.30132,47.037487 -1.4277,1.19743 -1.04392,0.890407 -1.934304,0.859682 -2.302751,1.013209 -2.364155,1.013211 -1.504463,0.767583 -1.811496,1.627274 1.504463,0.0307 1.811496,0.122812 1.596573,0.307033 1.688682,0.307033 1.320244,0.491255 0.337735,0.337735 2.149236,-0.614066 0.67547,-0.583364 0.67547,-0.583361 0.32238,-0.767586 0.32239,-0.767582 z"
       id="upper-trapezius-right" /><path
       style="fill:#cccccc;stroke:#000000;stroke-width:0.564999;stroke-linecap:round;stroke-linejoin:round"
       d="m 108.40197,55.893599 -2.01497,1.490906 -1.8729,1.166728 -1.81149,1.258834 -1.38165,1.19743 -2.149236,1.65798 -2.057103,1.535165 -1.443075,1.166728 -2.579079,1.750089 -1.688682,1.043911 -2.272046,1.105321 c 0,0 -2.486969,0.982506 -2.794002,1.043913 -0.307033,0.06141 -2.763298,0.890397 -2.763298,0.890397 l -1.19743,0.09211 -0.399142,-0.122815 1.412351,-0.921099 2.272046,-1.780791 2.272045,-2.364158 1.811497,-2.179934 1.934308,-2.548377 1.535168,-1.872903 2.179933,-1.627275 3.070334,-1.590413 0.706173,-0.282495 1.074618,-0.307033 1.07462,-0.307034 1.26047,-0.03819 1.5886,-0.04814 2.03276,0.02492 0.82899,0.06141 z"
       id="upper-pectoralis-right" /><path
       style="fill:#cccccc;stroke:#000000;stroke-width:0.564999;stroke-linecap:round;stroke-linejoin:round"
       d="m 91.664762,54.421632 -1.857549,1.120674 -1.166728,0.74304 -1.320242,0.976347 -1.504463,1.596573 -1.412351,1.596572 -1.381652,2.456265 -0.614066,1.19743 -0.712306,1.443056 -0.239495,1.627277 -0.36844,1.535166 -0.245626,2.118529 0.0614,0.743048 1.473761,-0.282498 -0.199572,-0.06141 0.506605,-0.521957 1.842199,-1.350947 2.272045,-2.072473 2.041772,-2.272046 2.840056,-3.638344 1.535168,-1.872903 1.089966,-0.813639 1.089965,-0.813636 1.535168,-0.795208 1.535168,-0.795205 0.706173,-0.282495 -0.997855,-0.583364 -1.504463,-0.399143 -1.642629,-0.307033 -1.704033,-0.214924 z"
       id="anterior-deltoid-right" /><path
       style="fill:#cccccc;stroke:#000000;stroke-width:0.564999;stroke-linecap:round;stroke-linejoin:round"
       d="m 90.912531,54.406283 -1.412351,0.214924 -2.48697,0.552659 -2.39486,0.675473 -1.688682,0.736881 -1.934308,1.320242 -1.811496,1.965012 -1.719387,2.548377 -0.951801,3.193145 -1.228135,3.101036 -0.82899,2.671188 -0.552659,1.811496 0.06141,0.675474 1.535165,-0.9211 2.579079,-0.890397 1.903606,-0.202591 0.921094,-0.282493 0.06141,-1.802313 0.611003,-3.408068 0.119745,-0.813639 0.712306,-1.443056 0.951894,-1.798013 1.043826,-1.855682 1.412351,-1.596572 1.504461,-1.596573 1.320244,-0.976347 2.095503,-1.303377 z"
       id="lateral-deltoid-right" /><path
       style="fill:#cccccc;fill-opacity:1;stroke:#000000;stroke-width:0.564999;stroke-linecap:round;stroke-linejoin:round"
       d="m 111.76009,58.981077 -1e-5,6.411026 v 5.557896 l -0.47192,1.910527 -0.86842,1.693421 -0.95527,1.25921 -1.12894,1.21579 -1.56316,1.25921 -1.77237,0.911841 -2.43947,0.955265 -1.52202,0.217104 -2.081932,0.260527 -1.841957,-0.130262 -1.924701,-0.521055 -2.008341,-0.781579 -1.986561,-1.042103 -1.921335,-1.432896 -1.867106,-1.997369 -1.953945,-1.867104 -1.736844,-0.738158 -2.075665,-0.68801 1.335601,-0.187303 2.051881,-0.529567 2.269003,-0.741558 2.971152,-1.261901 1.980364,-1.074616 3.42342,-2.272043 3.500178,-2.701893 4.436628,-3.484827 3.78613,-2.541598 1.00749,-0.745453 0.87114,0.370237 1.04392,0.828987 0.99786,1.243483 z"
       id="mid-lower-pectoralis-right" /><path
       style="fill:#cccccc;fill-opacity:1;stroke:#000000;stroke-width:0.564999;stroke-linecap:round;stroke-linejoin:round"
       d="m 114.58479,56.064263 2.00073,0.947579 2.17106,1.476314 2.30131,1.476317 2.12763,1.780262 1.82369,1.553046 1.95395,1.356167 2.90921,2.08421 2.55721,1.52509 2.56647,1.253858 2.17105,0.825 2.30132,0.738155 1.56316,0.260528 1.38947,0.23482 -1.95395,0.282493 -1.82368,0.568214 -1.43289,1.215789 -1.95395,1.780262 -2.17105,2.127631 -2.38816,1.476317 -2.34474,0.955262 -3.25658,0.39079 -1.73684,-0.04342 -1.78026,-0.260527 -1.68865,-0.564473 -2.69688,-1.25921 -2.21447,-1.910527 -1.73685,-1.823683 -0.71644,-1.25921 L 111.76008,70.95 v -2.778948 l 1e-5,-7.772368 v -1.417606 l 1.18207,-1.657979 z"
       id="mid-lower-pectoralis-left" /><path
       style="fill:#cccccc;fill-opacity:1;stroke:#000000;stroke-width:0.564999;stroke-linecap:round;stroke-linejoin:round"
       d="m 142.42105,71.575609 -1.62829,-0.864426 -1.67171,-1.237501 -1.71513,-1.541446 -2.04079,-2.127631 -2.08421,-2.431579 L 132,61.462499 l -1.67171,-1.780263 -1.67171,-1.541446 -1.69342,-0.955265 -1.78027,-0.838769 -0.80374,-0.282496 0.79829,-0.614066 1.32024,-0.429847 1.08997,-0.153517 1.88825,-0.27633 1.73474,-0.09211 0.93645,0.0307 1.65488,0.919585 2.04079,1.584868 1.62829,1.498028 1.56316,1.888816 1.08553,1.584867 0.97697,1.953948 0.73816,1.823683 0.39079,2.127634 0.47773,1.736841 z"
       id="anterior-deltoid-left" /><path
       style="fill:#cccccc;fill-opacity:1;stroke:#000000;stroke-width:0.564999;stroke-linecap:round;stroke-linejoin:round"
       d="m 142.42105,71.575609 1.94596,0.282482 1.99572,0.601745 1.35094,0.552659 1.50447,0.644771 0.30703,-0.214924 -0.58336,-2.272046 -1.68869,-5.09675 -1.19743,-3.469476 -1.68868,-2.732596 -1.38112,-1.443056 -1.35147,-1.258834 -1.65798,-0.822828 -1.59657,-0.564989 -2.21064,-0.546494 -1.87291,-0.521957 -2.24134,-0.4759 1.74699,1.21126 1.02039,0.792432 1.83454,1.541449 1.59573,1.693421 1.32434,1.736841 1.03125,1.769409 0.85757,1.888816 0.56447,1.975657 0.43426,1.932238 0.23887,0.868421 z"
       id="lateral-deltoid-left" /><path
       style="fill:#cccccc;fill-opacity:1;stroke:#000000;stroke-width:0.564999;stroke-linecap:round;stroke-linejoin:round"
       d="m 133.08553,77.549996 -1.31295,1.671714 -2.22587,1.975657 -3.82105,3.34342 -2.08421,1.932239 -0.58619,0.911842 -0.52105,2.51842 0.34737,2.822369 0.89013,3.690789 0.21711,2.105922 0.10855,4.624342 -0.23882,2.73552 -0.13026,2.49672 0.28223,2.01907 1.04211,2.84408 1.2375,1.78027 1.49803,0.97697 1.84539,0.71645 1.56316,0.2171 1.38947,-0.10855 -0.17368,-2.04079 -0.56448,-4.84145 -0.47763,-4.23355 -0.2171,-3.21316 -0.0217,-2.605258 0.45592,-1.997369 1.38948,-2.996054 1.75855,-3.842764 1.62829,-4.081579 0.93355,-2.887498 0.62961,-1.780265 -0.30395,-1.020395 -0.52105,-1.649999 -0.0217,-2.127631 0.0434,-2.236185 0.58618,-1.194077 0.21711,-1.042107 z"
       id="obliques-left" /><path
       style="fill:#cccccc;fill-opacity:1;stroke:#000000;stroke-width:0.564999;stroke-linecap:round;stroke-linejoin:round"
       d="m 137.92699,82.304603 1.12835,1.791793 1.73478,1.842198 1.33555,1.412352 1.22813,1.47376 2.05713,2.824705 1.38165,1.780794 1.68868,1.320242 2.42556,1.19743 2.14923,0.46055 1.22814,-0.890397 0.18421,-1.627275 -0.73688,-1.903606 -2.05712,-2.916817 -4.20635,-6.140664 -2.42556,-3.960728 -1.44306,-2.333453 -1.78079,-1.934308 -1.56587,-1.443056 -1.60935,-0.831807 -0.825,1.128945 -0.40164,1.118092 -0.29309,0.597038 -0.0217,1.118095 -0.0108,2.181907 0.0108,1.063816 0.26053,0.825 0.4125,1.335196 z"
       id="short-head-bicep-left" /><path
       style="fill:#cccccc;fill-opacity:1;stroke:#000000;stroke-width:0.564999;stroke-linecap:round;stroke-linejoin:round"
       d="m 153.05605,96.408427 1.90361,-0.736881 1.59657,-1.657979 0.46055,-3.653695 -0.46055,-3.530881 -0.9825,-3.377366 -2.02642,-4.35987 -1.71939,-2.701894 -1.47376,-1.903605 -0.98251,-0.936453 -1.65798,-0.537308 -2.3488,-0.853533 -1.32639,-0.300871 -0.0868,0.89367 -0.27138,1.248566 0.0434,1.498029 0.20491,1.669396 2.32668,3.781552 2.63882,4.062188 2.31221,3.37549 2.52522,3.600165 0.73688,1.903608 -0.18421,1.627275 z"
       id="long-head-bicep-left" /><path
       style="fill:#cccccc;fill-opacity:1;stroke:#000000;stroke-width:0.564999;stroke-linecap:round;stroke-linejoin:round"
       d="m 156.06498,85.140307 1.4666,2.439956 1.34605,2.040789 c 0,0 1.21579,0.911841 1.25921,1.085527 0.0434,0.173683 1.8671,2.257893 1.8671,2.257893 l 1.27632,1.386832 1.18208,1.581222 0.96715,1.734735 1.28954,2.548379 1.16673,2.62513 1.58122,3.36202 0.81364,2.39486 1.36629,3.05498 0.9211,2.08782 0.96716,2.50232 0.85969,1.56587 -0.53731,1.08997 -0.61406,0.99786 -1.10532,0.82898 -0.37612,0.1612 -0.67547,-1.56587 -0.8597,-1.76544 -0.68314,-1.59657 -1.49679,-2.4793 -1.96501,-3.59228 -1.09765,-1.51982 -1.80382,-2.82471 -2.05712,-3.17011 -1.97269,-2.763303 -1.37397,-1.76544 -1.23581,-1.857552 -0.87441,-1.048705 0.54914,-0.570262 0.3655,-0.551124 0.15347,-1.21756 0.24814,-1.968503 -0.11947,-1.4473 -0.30702,-2.353812 -0.36151,-1.242706 z"
       id="wrist-extensors-left" /><path
       style="fill:#cccccc;fill-opacity:1;stroke:#000000;stroke-width:0.564999;stroke-linecap:round;stroke-linejoin:round"
       d="m 171.76205,120.88665 -1.113,0.28249 -1.28954,-0.16735 -0.76758,-0.18422 -0.89039,-1.71939 -1.01321,-0.9518 -1.38165,-1.44306 -3.89932,-2.97822 -2.60979,-2.48697 -1.68868,-1.96501 -1.90034,-2.44648 -2.11677,-3.56052 -1.47632,-2.75724 -0.91184,-1.801973 -1.47632,-2.015985 -0.93355,-1.25145 -0.54276,-0.770723 -0.11407,-0.578424 1.23985,0.855374 1.22802,0.606237 1.87664,0.626216 1.07462,0.230275 0.9518,-0.368441 0.95181,-0.368442 0.70681,-0.733994 0.87441,1.048705 1.23581,1.857552 1.37397,1.765438 1.55898,2.183795 1.44227,2.16456 1.02856,1.58506 2.90147,4.34453 0.9825,1.79614 0.98251,1.79614 1.49679,2.4793 0.68314,1.59657 0.8597,1.76544 z"
       id="wrist-flexors-left" /><path
       style="fill:#cccccc;fill-opacity:1;stroke:#000000;stroke-width:0.564999;stroke-linecap:round;stroke-linejoin:round"
       d="m 174.39486,117.80864 0.76758,2.17994 0.9518,3.00892 0.92111,2.21064 1.35094,2.7326 0.9211,2.05712 0.18422,0.98251 -0.0614,1.9036 0.42985,2.42556 -0.0921,2.36416 -0.18422,1.75009 -0.49125,1.93431 -0.46055,1.01321 -1.16673,-0.39915 -0.61406,-1.04391 0.0307,-1.22813 0.42984,-1.19743 -0.15351,-1.68869 -0.46055,-2.05712 -0.46055,-1.47376 -0.98251,-0.9825 -0.5772,-0.73688 v 0.73688 l 0.0706,0.9518 0.52195,1.25884 0.15352,1.04391 0.0614,1.32024 -0.10746,1.27419 -0.0768,1.47376 0.23027,0.64477 0.38379,0.36844 0.64477,0.0461 0.27633,-0.0307 0.0921,-1.13602 0.38379,-0.93645 -0.15351,-1.91896 -0.90575,-3.43877 -1.61192,-1.61193 v -1.12067 l -0.9518,-0.81364 -0.23028,0.19958 0.13816,0.85969 -0.15351,2.02642 c 0,0 -0.35309,1.32024 -0.4452,1.48911 -0.0921,0.16887 -0.61407,0.59871 -0.61407,0.59871 l -0.9825,0.10747 -0.78294,-0.58337 -0.35309,-0.82899 0.0307,-1.35094 c 0,0 -0.13817,-2.21064 -0.15352,-2.2874 -0.0153,-0.0768 -0.16887,-1.68868 -0.16887,-1.68868 l -0.55266,-1.38165 -1.01321,-1.73474 -0.0461,-1.48911 0.27633,-0.84434 0.52195,-0.69083 -0.56801,-1.25883 0.76758,0.18422 0.99643,0.12931 0.84961,-0.10321 0.93262,-0.30244 0.55266,-0.41449 0.85969,-0.91342 z"
       id="wrist-left" /><path
       style="fill:#cccccc;fill-opacity:1;stroke:#000000;stroke-width:0.564999;stroke-linecap:round;stroke-linejoin:round"
       d="m 131.19671,116.93289 -1.6287,0.78364 -2.17993,0.0921 -2.36416,0.67547 c 0,0 -1.65798,1.13603 -1.8422,1.22814 -0.18422,0.0921 -2.48697,2.08782 -2.48697,2.08782 l -1.38165,1.22814 -0.9518,0.49125 c 0,0 -0.79829,1.25883 -0.82899,1.38165 -0.0307,0.12281 -1.01321,1.53516 -1.01321,1.53516 l -0.98251,1.47376 c 0,0 -0.9825,1.13603 -1.10532,1.19743 -0.12281,0.0614 -1.16672,0.85969 -1.16672,0.85969 l -1.35095,0.64478 -1.13602,-0.21493 -1.28954,-0.82899 -1.38165,-1.50446 -1.13602,-1.50446 -1.16673,-1.99572 -0.80364,-1.22813 -1.407,-0.73688 -1.50446,-1.44306 -1.22813,-0.9825 -1.381653,-1.16673 -1.811496,-0.70618 -1.412351,-0.49125 -1.473761,-0.0614 0.614066,0.67548 1.596576,0.9518 1.13602,0.9211 1.842201,1.62728 1.136018,1.35094 0.95181,1.28954 0.79828,1.47376 0.98251,1.93431 0.73688,2.54837 c 0,0 1.22813,3.59229 1.19743,3.46948 -0.0307,-0.12281 0.58336,1.8115 0.58336,1.8115 l 0.9518,2.8247 1.35095,2.36416 1.35095,0.82899 1.01321,0.30703 1.9036,0.0307 1.41235,-0.9518 1.38165,-1.96501 0.98251,-2.24134 1.10532,-2.7326 0.76758,-3.10104 0.8597,-1.99571 0.73688,-2.70189 1.47375,-1.99572 1.04392,-1.62728 1.35094,-1.38164 1.25884,-1.38165 1.78079,-1.07462 1.53517,-0.82899 z"
       id="groin" /><path
       style="fill:#cccccc;fill-opacity:1;stroke:#000000;stroke-width:0.564999;stroke-linecap:round;stroke-linejoin:round"
       d="m 94.781147,117.74723 -2.133878,-0.55266 z"
       id="path18" /><path
       style="fill:#cccccc;fill-opacity:1;stroke:#000000;stroke-width:0.564999;stroke-linecap:round;stroke-linejoin:round"
       d="m 92.647269,117.19457 -1.48911,-0.54253 z"
       id="path19" /><path
       style="fill:#cccccc;fill-opacity:1;stroke:#000000;stroke-width:0.564999;stroke-linecap:round;stroke-linejoin:round"
       d="m 91.158157,116.65204 -0.278773,-2.00584 0.500221,-1.36067 -0.06513,-1.82369 0.390789,-2.62697 0.412501,-3.45198 0.06513,-2.82236 -0.04342,-2.844084 -0.39079,-2.019078 -0.955262,-2.323026 -2.214475,-4.624342 -1.259211,-2.930922 -0.846709,-2.90921 -0.716449,-2.192764 -0.325657,-0.108553 0.759867,-2.236184 0.282239,-2.040789 0.02172,-2.583553 -0.564473,-1.593356 -0.477631,-1.294143 0.976971,0.933551 1.327322,1.308343 1.516758,1.622579 1.429647,1.066204 1.197327,1.560769 1.693421,1.563421 1.595842,1.476054 2.333763,1.801974 1.930498,1.932236 1.282657,1.584868 -0.0434,2.887501 -0.2171,1.910524 -0.45592,2.105922 -0.303952,1.888816 -0.04342,1.823685 -0.303948,1.867107 -0.0217,2.54013 0.06513,1.82368 0.303948,1.51974 0.04342,2.49671 -0.390789,1.88882 -0.955263,2.58355 -0.86842,1.56316 -1.367764,1.25921 -1.678945,0.78296 H 92.61713 Z"
       id="obliques-right" /><path
       style="fill:#cccccc;fill-opacity:1;stroke:#000000;stroke-width:0.564999;stroke-linecap:round;stroke-linejoin:round"
       d="m 84.584208,72.491446 -1.563155,0.998685 -1.663335,1.411185 -1.224167,1.541446 -1.107236,1.715133 -1.606579,2.561841 -1.150657,1.953948 -1.628291,2.366446 -1.107236,1.867107 -1.215789,1.454605 -1.367764,2.019077 -1.020395,1.823686 -0.86842,1.541447 -0.108554,1.584867 0.564476,0.75987 1.237498,0.282236 1.498026,-0.217106 1.628291,-0.759868 1.780262,-1.042103 1.411184,-1.519738 1.997369,-2.648685 1.519738,-1.997369 1.563158,-1.801974 1.606579,-1.519735 0.93355,-1.128948 0.738159,-1.128948 0.759867,-2.236184 0.141121,-1.020395 0.141118,-1.020394 0.01535,-1.823556 -0.275849,-1.556676 -0.521052,-1.44375 -0.238826,-0.64707 z"
       id="short-head-bicep-right" /><path
       style="fill:#cccccc;fill-opacity:1;stroke:#000000;stroke-width:0.564999;stroke-linecap:round;stroke-linejoin:round"
       d="m 69.234867,95.710853 -1.584868,-0.705591 -0.781579,-2.344738 -0.217104,-2.388158 0.130263,-1.606576 0.43421,-2.561844 0.303948,-1.671709 1.823683,-3.886184 1.085527,-2.344738 1.172369,-2.040789 1.519735,-1.780265 0.812546,-0.845809 1.56587,-0.583362 2.579079,-0.890397 1.330328,-0.141581 0.166457,0.655863 0.184219,0.591036 0.138165,0.928778 -0.0077,0.905748 -0.391467,1.327917 -0.616524,2.059485 -1.462312,2.331797 -1.150657,1.953948 -0.814147,1.183222 -0.814144,1.183222 -1.107236,1.867109 -1.21579,1.454605 -1.367763,2.019075 -1.020395,1.823688 -0.43421,0.770723 -0.434211,0.770724 -0.108553,1.584867 z"
       id="long-head-bicep-right" /><path
       style="fill:#cccccc;fill-opacity:1;stroke:#000000;stroke-width:0.564999;stroke-linecap:round;stroke-linejoin:round"
       d="m 67.649999,95.005262 -3.142324,4.319979 -1.412351,2.118529 -1.381651,2.14923 -1.535166,1.99572 -1.412351,2.48697 -1.780794,2.794 -1.289539,2.24134 -1.565868,2.7326 -0.951804,1.96501 -1.166725,2.30275 -0.09211,0.85969 1.166728,0.27633 1.320241,-0.33773 0.614067,-0.15352 0.245625,-1.01321 1.197431,-1.16673 0.921099,-1.07461 1.842201,-1.65798 1.565868,-1.19743 1.320244,-1.13603 1.811496,-1.50446 1.320242,-1.41235 1.19743,-1.32024 2.228143,-3.00893 0.965002,-1.8422 1.19743,-1.93431 0.798285,-1.81149 0.921099,-1.535168 1.013212,-1.381649 1.013208,-1.56587 1.082818,-1.839555 -1.215827,0.7117 -1.378582,0.710335 -1.151289,0.428796 -1.160881,0.168244 -0.918712,-0.209529 -0.601025,-0.452641 -0.792435,-0.352796 z"
       id="wrist-flexors-right" /><path
       style="fill:#cccccc;fill-opacity:1;stroke:#000000;stroke-width:0.564999;stroke-linecap:round;stroke-linejoin:round"
       d="m 51.919316,120.97108 -1.166727,-0.55266 -0.736881,-0.9211 -0.798285,-1.47376 -0.06141,-0.61406 0.982507,-1.68869 0.951801,-2.30274 1.412354,-3.50018 0.951804,-2.36416 0.644768,-1.53517 0.706176,-1.62727 0.82899,-2.05712 1.228135,-2.27205 1.105318,-2.364154 1.013208,-1.443056 0.736881,-1.412354 c 0,0 1.136023,-1.381649 1.258837,-1.504463 0.122812,-0.122811 1.627275,-1.842198 1.627275,-1.842198 l 1.443056,-1.565871 1.320244,-1.381648 1.001445,-1.535166 0.272741,-0.82899 0.429847,-1.274188 0.448334,-0.477795 -0.228007,1.254038 -0.258699,1.495935 -0.251452,1.48358 -0.08958,1.104852 0.03319,1.31432 0.143232,1.57556 0.39079,1.172371 0.390789,1.172369 -0.655354,0.988049 -0.915808,1.17194 -2.277337,3.219259 -1.397003,2.13387 -1.979451,2.74984 -0.952714,1.56398 -1.205013,2.02614 -1.926728,3.13202 -1.133491,1.97354 -1.077145,1.87973 -0.951804,1.96501 -0.776883,1.53332 -0.389842,0.76943 z"
       id="wrist-extensors-right" /><path
       style="fill:#cccccc;fill-opacity:1;stroke:#000000;stroke-width:0.564999;stroke-linecap:round;stroke-linejoin:round"
       d="m 49.217423,118.02356 -1.043913,2.30275 -0.552659,1.68868 -0.890397,2.24135 -1.043914,2.57908 -0.859692,1.68868 -0.644771,1.44305 -0.153516,2.36416 -0.276329,2.51767 -0.184221,2.33345 0.399145,2.39487 0.675471,2.36415 0.337738,0.24563 0.73688,-0.33774 0.583361,-0.64477 0.276331,-0.79829 -0.09211,-1.28953 -0.245626,-1.56587 0.184219,-1.07462 0.27633,-1.35095 0.153517,-0.9518 0.552659,-1.04391 0.552659,-0.58337 0.521957,-0.85969 0.39297,-1.07461 v 1.68868 l -0.208751,1.32024 -0.429845,0.85969 -0.153517,1.44306 -0.09211,2.24134 0.0307,1.62728 -0.276331,0.58336 -0.706175,0.15352 -0.552659,-0.0921 0.06141,-1.28954 -0.307033,-1.68868 0.706175,-3.37737 0.521957,-1.10532 0.46055,-0.42985 0.945629,-1.59657 v -0.8904 l 0.865867,-0.30703 0.184219,0.0614 0.06141,2.60978 0.583364,1.8729 0.706175,0.73688 1.074616,-0.0921 0.644771,-0.73688 0.153517,-1.32024 0.214921,-2.02642 0.184221,-2.21064 0.245626,-1.35094 1.258837,-1.8115 0.153517,-1.25884 -0.36844,-1.50446 -0.399143,-0.64477 0.276331,-1.24348 -1.627275,0.41449 -1.750091,-0.55266 -0.583364,-0.27633 z"
       id="wrist-right" /><path
       style="fill:#cccccc;fill-opacity:1;stroke:#000000;stroke-width:0.564999;stroke-linecap:round;stroke-linejoin:round"
       d="m 101.01926,97.114605 2.42023,0.30703 h 2.57907 l 2.60979,-0.06141 2.70189,-0.951801 0.37609,-1.424853 v -2.167438 2.456268 l 0.33009,0.921099 1.07461,0.767583 1.8115,0.27633 2.48697,0.06141 2.73259,0.122811 2.4485,-0.09978 -0.0844,1.373973 -0.27633,5.672433 -0.19786,4.02438 c 0,0 -0.23198,2.83781 -0.23198,2.83781 l -0.32526,2.83913 -0.66493,3.16337 -0.39146,1.51214 -0.55266,1.29721 -0.91106,2.32653 -0.98308,1.93755 -1.45244,2.12988 -0.98251,1.47376 -1.10532,1.19743 -1.16681,0.85969 -1.35086,0.64478 -1.13611,-0.21493 -1.28945,-0.82899 -1.38165,-1.50446 -1.31001,-1.80193 -1.39456,-2.31232 -0.73973,-1.40992 -2.05168,-5.06847 -0.42984,-2.30275 -0.21493,-2.88611 -0.21493,-1.65798 -0.27633,-3.56159 -0.25826,-3.7458 -0.19677,-2.54837 -9e-5,-1.473758 z"
       id="lower-abdominals" /><path
       style="fill:#cccccc;fill-opacity:1;stroke:#000000;stroke-width:0.564999;stroke-linecap:round;stroke-linejoin:round"
       d="m 105.31239,98.465549 3.28525,-0.399143 1.75009,0.0614 0.9211,0.245628 0.4375,0.736878 V 100.799 99.079615 l 1.09767,-0.82899 1.10532,-0.122814 1.90361,0.122814 2.17993,0.214924"
       id="path28" /><path
       style="fill:#cccccc;fill-opacity:1;stroke:#000000;stroke-width:0.564999;stroke-linecap:round;stroke-linejoin:round"
       d="m 105.28168,88.517673 1.07461,-0.337738 2.14923,-0.276328 1.53517,-0.122814 0.85969,0.460549 0.80594,0.951805 -0.0537,1.258834 1e-5,-1.320241 1.02856,-0.798286 1.13602,-0.55266 1.41235,0.06141 2.17994,0.36844 0.86586,0.214923"
       id="path29" /><path
       style="fill:#cccccc;fill-opacity:1;stroke:#000000;stroke-width:0.564999;stroke-linecap:round;stroke-linejoin:round"
       d="m 102.79472,87.995717 1.9036,-0.497425 1.59657,-0.45438 1.87291,-0.276328 2.21064,-0.09211 0.89039,-0.214924 0.50969,-1.105321 v -2.333453 2.302753 l 0.65704,1.136022 1.01321,0.429847 1.78079,-0.122813 2.64049,0.460549 2.85541,0.767583"
       id="path30" /><path
       style="fill:#cccccc;fill-opacity:1;stroke:#000000;stroke-width:0.564999;stroke-linecap:round;stroke-linejoin:round"
       d="m 103.62371,107.09318 6.32488,0.24563 1.19743,-0.49126 0.56031,-1.25883 v -2.11853 2.27205 l 0.63712,1.13602 0.85969,0.42984 1.68868,0.12282 4.94324,-0.27633"
       id="path31" /><path
       style="fill:#cccccc;fill-opacity:1;stroke:#000000;stroke-width:0.564999;stroke-linecap:round;stroke-linejoin:round"
       d="m 105.55801,108.50553 2.48697,-0.0307 1.47376,0.21493 1.19743,0.15351 1.01321,0.85969 0.0755,1.8115 v -1.8422 l 0.59994,-0.61406 1.10531,-0.27634 1.16673,-0.18422 0.98251,-0.18422 2.61595,-0.12281"
       id="path32" /><path
       style="fill:#cccccc;fill-opacity:1;stroke:#000000;stroke-width:0.564999;stroke-linecap:round;stroke-linejoin:round"
       d="m 111.80492,114.03213 v 13.8165"
       id="path33" /><path
       style="fill:#cccccc;fill-opacity:1;stroke:#000000;stroke-width:0.564999;stroke-linecap:round;stroke-linejoin:round"
       d="m 122.59059,97.321853 -0.0229,-3.216177 0.22062,-2.138124 -0.25407,-2.064266 0.26053,-1.259208 0.0784,-2.429155 0.73848,-2.057123 -0.0614,-1.414557 -0.67707,-1.256631 -1.04231,-0.571219 -1.94048,-1.411447 -2.01666,-0.941604 -2.24493,-0.05395 -1.59658,-0.184222 -1.25883,0.337738 -0.73071,0.675474 -0.2825,1.074615 -0.46055,-1.289539 -0.9211,-0.583364 -1.25884,-0.122812 -2.34723,-0.128124 -1.77237,0.911841 -1.21973,0.477631 -1.98075,0.586185 -0.78017,1.069282 -0.7423,0.429847 -0.583367,0.9803 0.184222,1.813703 0.858945,3.153579 -0.0434,2.887501 0.32581,6.516579 1.21012,0.153514 2.49965,0.153514 h 1.28953 l 2.60979,-0.06141 1.35095,-0.475901 1.35094,-0.475898 0.37609,-1.136023 v -2.45627 2.45627 l 0.33009,0.921097 1.07461,0.767585 1.8115,0.276328 2.48697,0.06141 2.73259,0.122812 z"
       id="upper-abdominals" /><path
       style="fill:#cccccc;fill-opacity:1;stroke:#000000;stroke-width:0.564999;stroke-linecap:round;stroke-linejoin:round"
       d="m 91.158157,116.65204 -0.414494,1.26406 -0.291682,2.19529 -0.552659,3.50018 -0.122814,1.56587 -0.614066,2.7633 -1.688682,6.81613 -0.337736,2.54838 -0.583363,3.03963 -0.644771,3.7151 -0.276329,3.00893 -0.36844,5.28097 -0.214924,3.7151 0.184219,8.62763 0.552662,3.43877 0.951801,6.57051 0.859695,3.19315 0.736878,1.38165 1.043913,0.82899 1.535166,0.18422 1.596572,-0.61407 1.750089,-2.02642 0.736881,-2.24134 -0.0307,-4.54409 -0.552659,-5.92574 -1.074619,-8.44342 -0.890394,-6.66262 -0.122814,-3.31596 -0.337736,-5.52659 0.0307,-2.794 0.0307,-5.58801 -0.0307,-3.06218 0.337736,-3.10919 0.388387,-2.48697 0.339915,-2.08782 0.223502,-1.8422 -0.223502,-0.76758 -1.741511,-1.50447 -0.491252,-0.28723 z"
       id="outer-quadricep-right" /><path
       style="fill:#cccccc;fill-opacity:1;stroke:#000000;stroke-width:0.564999;stroke-linecap:round;stroke-linejoin:round"
       d="m 92.213133,118.49946 1.094258,1.51982 0.859692,1.23428 0.684893,1.95886 0.91168,2.7019 0.644771,2.73259 0.491252,2.94752 0.644771,4.35987 0.675473,5.03535 0.706175,7.48183 0.9211,4.03191 0.307032,2.27205 0.52196,5.34238 0.18422,3.7151 0.0307,6.35558 -0.12281,4.94324 -0.0921,2.94752 0.33774,1.53517 0.82898,1.65797 0.55266,0.70618 -1.47376,2.33345 -1.136019,1.28954 -1.136023,0.52196 -1.136023,0.12281 -1.013209,-0.12281 -1.221965,-0.58336 -0.865859,-1.87291 -0.583364,-2.42556 -0.491255,-1.32024 -0.828992,-0.24563 0.875046,-1.01321 0.875043,-1.01321 0.36844,-1.12067 0.368443,-1.12067 -0.02469,-3.65415 -0.151323,-2.44799 -0.504044,-5.12744 -1.061779,-8.31115 -0.468976,-3.50923 -0.337563,-2.52591 -0.06141,-1.65798 -0.121682,-2.6443 -0.27746,-4.54027 0.0307,-2.794 0.02209,-6.44762 0.0784,-3.12758 0.431451,-3.42767 0.364148,-2.28739 0.28171,-1.96501 0.111752,-0.9211 z"
       id="rectus-femoris-right" /><path
       style="fill:#cccccc;fill-opacity:1;stroke:#000000;stroke-width:0.564999;stroke-linecap:round;stroke-linejoin:round"
       d="m 102.39558,181.97858 0.98995,-2.7799 0.73815,-3.34342 0.39079,-3.03947 0.78158,-3.77763 0.52106,-3.56053 -0.81711,-2.30132 -0.96316,-1.08552 -1.60658,-2.69211 -0.91184,-2.08421 -1.671222,-4.81108 0.442432,3.65795 0.38656,3.95648 0.18422,3.7151 0.0153,3.17779 0.0153,3.17779 -0.0614,2.47162 -0.10746,3.94538 -0.046,1.47376 0.33774,1.53517 0.82898,1.65797 z"
       id="inner-quadricep-right" /><path
       style="fill:#cccccc;fill-opacity:1;stroke:#000000;stroke-width:0.564999;stroke-linecap:round;stroke-linejoin:round"
       d="m 105.81711,165.47763 1.34605,-2.73553 0.825,-2.34473 1.34605,-4.03816 0.99868,-3.64737 0.6079,-2.86579 0.2171,-3.56053 0.2184,-3.56114 0.0289,-0.59255 -1.39517,-0.31319 -1.07138,-0.65744 -0.95505,-1.35363 -0.85194,-1.70581 -0.45288,-1.34402 -0.90581,-2.76845 -0.95559,-2.76285 -0.97872,-3.255 -0.98251,-1.93431 -1.27419,-2.11853 -1.04391,-1.32024 -1.48911,-1.48911 -1.489109,-1.27419 -1.366298,-0.93645 -1.105323,-0.81364 -0.307033,-0.33774 -2.133878,-0.55266 -1.489112,-0.54253 -0.307033,0.80796 1.362009,1.03946 0.547129,0.75991 1.406821,1.99419 1.111488,2.69574 1.129856,4.69761 0.429844,2.24751 0.909561,6.576 0.472091,3.51923 0.268753,2.84743 0.279273,2.95883 0.431493,2.87208 0.647756,2.8354 0.835612,2.40554 1.74745,4.48975 1.1276,1.8895 1.44214,1.88813 0.40855,1.15066 z"
       id="inner-thigh-right" /><path
       style="fill:#f9f9f9;fill-opacity:1;stroke:#000000;stroke-width:0.564999;stroke-linecap:round;stroke-linejoin:round"
       d="m 103.38553,179.19868 -0.13027,3.4954 -0.42309,2.2796 -1.94336,3.92961 -1.975652,3.16973 -0.75987,0.99869 -1.563156,0.93355 -1.845397,0.95526 -1.71513,0.10856 -1.063816,-0.30395 -1.541449,-1.38947 -1.367761,-1.73685 -0.629607,-1.19408 -1.063816,-0.65131 -0.868421,-0.21711 0.39079,-3.27828 0.477631,-1.86711 0.260527,-2.54013 -0.02711,-3.99575 0.368438,0.69082 0.36844,0.69083 1.043911,0.82899 0.767585,0.0921 1.565868,-0.21493 0.798285,-0.30703 0.829,0.24563 0.491255,1.32024 0.291682,1.21278 0.291682,1.21278 0.865859,1.87291 0.610984,0.29168 1.117587,0.35308 2.210638,-0.32238 1.136023,-0.90575 0.95272,-1.25389 1.08905,-1.72433 z"
       id="path39" /><path
       style="fill:#cccccc;fill-opacity:1;stroke:#000000;stroke-width:0.564999;stroke-linecap:round;stroke-linejoin:round"
       d="m 94.744735,194.96052 -0.117102,2.1548 -0.107461,1.51981 -0.644771,3.94538 -0.399142,3.36201 -0.583364,3.97608 -0.107461,2.48697 -0.629417,4.08354 -0.46055,4.28312 -0.307033,2.17993 -0.16887,1.88826 -0.19957,1.96501 -0.276331,2.97822 -0.245626,2.44091 -0.01535,2.04177 -1.535168,-0.0153 -1.320241,-0.12282 0.0307,-1.50446 0.09211,-4.65155 0.138165,-4.6669 0.01535,-2.47162 0.07676,-2.42556 0.06141,-4.45199 0.260977,-3.97608 0.168867,-2.90146 0.06141,-3.60764 0.168868,-2.51767 0.337738,-4.51339 0.153517,-3.74581 0.09871,-0.75646 0.807093,1.02488 1.096115,1.10794 0.770724,0.69473 1.063818,0.30395 0.857565,-0.0543 z"
       id="tibialis-right" /><path
       style="fill:#cccccc;fill-opacity:1;stroke:#000000;stroke-width:0.564999;stroke-linecap:round;stroke-linejoin:round"
       d="m 85.723671,233.25313 1.243483,0.66012 0.660122,0.21496 1.320242,0.12282 1.535168,0.0153 1.320242,-0.46054 1.397002,-0.96716 0.767583,-0.61406 0.06141,1.48911 c 0,0 0.138165,1.61192 0.138165,1.67333 0,0.0614 -0.19957,1.55052 -0.19957,1.55052 l -0.36844,0.9518 c 0,0 -0.414496,0.52196 -0.399143,0.62942 0.01535,0.10746 0.122812,2.70189 0.122812,2.70189 l 0.138165,1.53517 0.06141,2.21063 -0.614067,1.27419 -1.136022,0.72153 -1.965013,1.13602 c 0,0 -0.276331,1.16673 -0.276331,1.22814 0,0.0614 0,1.36629 0,1.36629 l -1.366298,1.42771 -0.890397,0.55266 -0.67547,0.12281 -0.491255,0.75223 c 0,0 -0.322384,0.72153 -0.353089,0.78294 -0.0307,0.0614 -0.629417,0.39914 -0.690824,0.46055 -0.06141,0.0614 -1.02856,0.4759 -1.02856,0.4759 l -1.013212,0.0768 -1.028559,-0.38379 -0.72153,-0.61407 -0.721526,0.61407 -1.074616,-0.12282 -0.491255,-0.78293 -0.675473,0.24562 -0.997857,-1.21278 -1.013209,-0.9211 -0.706178,-0.33773 -0.07676,-1.39701 0.644771,-1.47375 1.56587,-1.58122 1.719384,-1.53517 1.412354,-1.10532 1.366298,-2.10318 1.366297,-2.37951 1.519815,-2.45626 0.138165,-2.14923 z"
       id="foot-right" /><path
       style="fill:#cccccc;fill-opacity:1;stroke:#000000;stroke-width:0.564999;stroke-linecap:round;stroke-linejoin:round"
       d="m 98.533221,192.57236 0.05514,2.6547 0.291679,3.79186 0.383792,2.71725 0.399145,4.34452 0.09211,1.9036 -0.429847,2.54838 -0.690825,1.24348 -0.967155,1.8115 -0.951801,3.16244 -1.182079,4.25241 -0.644769,2.22599 -0.583364,3.42342 -0.337735,5.57266 -0.767585,0.61406 -1.056132,0.73117 -1.00099,0.46626 -0.66012,0.23027 0.01281,-1.70301 0.168021,-1.98317 0.253884,-2.66895 0.202385,-2.08828 0.575685,-5.05069 0.408737,-3.80123 0.366524,-2.52366 0.265099,-1.71993 0.131736,-2.22256 0.44562,-3.45083 0.230642,-1.6806 0.586507,-4.35284 0.465053,-3.44916 0.0908,-1.5335 0.05855,-1.0774 0.922698,-0.47763 2.865789,-1.91053 z"
       id="gastrocnemius-right" /><path
       style="fill:#cccccc;fill-opacity:1;stroke:#000000;stroke-width:0.564999;stroke-linecap:round;stroke-linejoin:round"
       d="m 86.494733,189.57631 -0.35822,1.82369 -0.673028,1.98651 -0.61875,2.33388 -0.412498,2.20362 -0.434211,2.49671 -0.151974,2.50757 -0.271383,4.54835 0.314804,4.24441 0.445066,4.19013 0.477632,2.7898 0.249671,2.86579 0.27138,2.33389 0.141119,1.29177 0.303948,2.92007 -0.02172,4.03816 -0.03291,1.10247 0.621742,0.33006 0.621742,0.33006 0.660119,0.21496 0.03516,-1.7297 0.06253,-3.15785 0.06596,-2.64809 0.09732,-3.28727 0.01288,-2.0752 0.08448,-3.20329 0.03593,-2.60477 0.09263,-2.56906 0.188571,-2.87293 0.174651,-3.24126 0.04322,-2.53921 0.181271,-3.2463 0.189653,-2.53445 0.177866,-2.70565 0.06904,-1.68463 0.104048,-1.7127 0.04935,-0.37823 -0.550084,-0.89585 -0.314804,-0.59704 -0.749599,-0.45894 z"
       id="soleus-right" /><path
       style="fill:#cccccc;fill-opacity:1;stroke:#000000;stroke-width:0.564999;stroke-linecap:round;stroke-linejoin:round"
       d="m 132.58618,116.82434 0.0215,0.86149 -0.9211,0.18422 -0.67548,1.07461 -0.78047,0.9211 0.28922,1.75009 0.27633,2.51767 0.24563,1.90361 0.12281,1.93431 0.31115,2.42556 v 5.40379 l 0.24151,2.08782 -0.24151,2.97822 v 3.74581 l -0.46467,4.17565 -0.64477,6.38629 -0.55266,4.54409 -0.52195,3.34666 -0.67548,6.26348 -0.27633,2.85541 0.24563,3.19315 0.42985,1.8422 1.19743,1.78079 1.25883,0.9518 1.59658,0.39914 1.53516,-0.49125 0.9518,-1.59657 0.76759,-2.11853 0.61406,-3.28525 c 0,0 0.42985,-2.48697 0.46055,-2.60979 0.0307,-0.12281 0.52196,-4.48983 0.52196,-4.48983 l 0.27633,-4.1071 0.18422,-5.00464 -0.0614,-5.49589 -0.76758,-6.417 -0.64477,-4.85112 -0.9211,-5.18886 c 0,0 -1.28954,-5.15001 -1.28954,-5.15001 l -0.89039,-4.52154 -0.64478,-4.26776 z"
       id="outer-quadricep-left" /><path
       style="fill:#f9f9f9;fill-opacity:1;stroke:#000000;stroke-width:0.564999;stroke-linecap:round;stroke-linejoin:round"
       d="m 135.55519,178.26348 0.20073,2.79145 0.18454,2.14934 0.37993,2.12764 0.44507,2.73552 -0.0108,1.51974 -0.65132,0.33651 -1.12894,0.7056 -0.55362,0.81414 -0.56447,0.95526 -1.05296,1.45461 c 0,0 -0.95527,0.71644 -1.12895,0.75987 -0.17369,0.0434 -1.38948,0.34736 -1.38948,0.34736 l -1.28091,-0.0434 -1.25922,-0.2171 -1.62829,-0.97698 -1.54144,-1.51973 -1.08553,-1.86711 -1.56316,-2.71381 -0.84671,-1.8454 c 0,0 -0.71645,-1.97566 -0.71645,-2.12763 0,-0.15197 -0.36907,-2.56184 -0.36907,-2.64868 0,-0.0868 0.0217,-2.17106 0.0217,-2.17106 l 0.45592,1.4329 0.93356,2.49671 1.10723,1.78026 1.75856,1.34605 1.80197,0.43421 1.69342,-0.47763 0.84671,-1.02039 c 0,0 0.67303,-2.10592 0.69474,-2.23619 0.0217,-0.13026 0.56447,-1.80197 0.56447,-1.80197 l 0.96987,-1.30729 0.62941,0.4759 0.79829,0.19957 0.79829,0.19957 0.76758,-0.24563 0.76758,-0.24562 z"
       id="path45" /><path
       style="fill:#cccccc;fill-opacity:1;stroke:#000000;stroke-width:0.564999;stroke-linecap:round;stroke-linejoin:round"
       d="m 130.23063,119.86576 -1.053,1.75661 -0.95526,2.40987 -0.69474,2.6921 -0.80329,3.77763 -0.17368,1.88882 -0.73816,3.62566 -0.15198,2.38815 -0.34736,3.4954 -0.26053,2.38816 -0.67303,4.29987 -0.86842,4.9271 -0.43421,3.23487 -0.36908,4.64605 -0.0868,3.53882 v 6.05723 c 0,0 0.1954,5.99211 0.15198,6.10066 -0.0434,0.10855 -0.26053,2.51842 -0.26053,2.51842 l -0.56447,1.34606 -1.00949,0.55363 1.02039,2.13849 0.55362,0.89013 0.87928,0.67302 1.27477,0.76833 1.40648,0.33891 1.69342,-0.47763 0.84671,-1.02039 0.69474,-2.23619 0.56447,-1.80197 0.96987,-1.30729 -0.62947,-0.47592 -0.59872,-0.8904 -0.59871,-0.89039 -0.42985,-1.8422 -0.15573,-4.12217 0.13913,-1.43764 0.38504,-3.62049 0.39665,-3.50945 0.57517,-3.89092 0.44053,-3.62212 0.32238,-3.19315 0.55472,-5.28097 0.23234,-2.08782 -3e-5,-2.56067 0.24154,-4.16336 -0.12076,-1.04391 -0.12075,-1.04391 v -2.7019 -1.92389 l -0.15558,-1.99078 -0.21698,-2.17994 -0.18422,-1.91896 -0.39914,-3.46947 z"
       id="rectus-femoris-left" /><path
       style="fill:#cccccc;fill-opacity:1;stroke:#000000;stroke-width:0.564999;stroke-linecap:round;stroke-linejoin:round"
       d="m 120.2438,179.54607 -0.53216,-2.99607 -0.69454,-3.16974 -0.52105,-2.90921 -0.69474,-4.125 0.26053,-2.34474 0.91184,-1.47631 1.68241,-2.12763 1.18338,-2.64869 1.67171,-4.23355 -0.43421,3.23487 -0.18454,2.32302 -0.22794,4.09244 -0.0434,3.3977 v 4.42894 l 0.0877,2.85066 0.0643,3.25 -0.26053,2.51842 -1.06922,1.62287 -0.50478,0.27682 z"
       id="inner-quadricep-left" /><path
       style="fill:#cccccc;fill-opacity:1;stroke:#000000;stroke-width:0.564999;stroke-linecap:round;stroke-linejoin:round"
       d="m 132.60768,117.68583 -0.9211,0.18422 -0.58024,0.92309 -0.54047,0.79017 c 0,0 -0.45909,0.48905 -0.48616,0.53421 -0.0271,0.0452 -0.77429,1.29167 -0.77429,1.29167 l -1.08305,2.62305 -0.34737,1.34605 -0.55888,2.34069 -0.59178,2.78299 -0.54276,3.70165 -0.44507,3.0069 -0.24967,2.94178 -0.43421,4.13586 -0.33652,2.14993 -0.48221,2.97655 -0.72272,4.10049 -0.83586,2.11677 -0.83585,2.11678 -1.18338,2.64869 -0.84121,1.06381 -1.29712,1.80197 -0.58619,1.91053 -0.51019,1.40033 -0.28224,-1.67714 -0.67302,-1.72598 -0.77706,-2.20501 -1.25677,-3.9026 -1.65365,-5.88698 -0.56224,-3.70417 -0.24139,-5.33111 0.9518,0.0153 0.70617,-0.4759 1.397,-1.4584 0.69083,-0.98251 0.98251,-2.24134 0.79229,-1.95873 0.69682,-2.32439 0.81364,-2.54837 0.79829,-2.3488 0.36844,-1.35095 0.73687,-0.99786 0.73688,-0.99786 1.04392,-1.62728 0.67547,-0.69082 1.30489,-1.38164 1.51981,-1.22814 1.65798,-0.9518 2.05784,-1.03659 1.29025,-0.6221 1.38947,-0.10855 z"
       id="inner-thigh-left" /><path
       style="fill:#cccccc;fill-opacity:1;stroke:#000000;stroke-width:0.564999;stroke-linecap:round;stroke-linejoin:round"
       d="m 136.75466,189.58717 0.89482,2.23574 0.59531,2.28204 0.99219,4.10104 0.59531,4.86172 0.0661,3.83645 -0.1323,3.40651 -0.29765,3.77032 -0.69453,4.86172 -0.76068,5.42395 -0.13229,5.06016 v 3.96875 l -1.52136,0.62839 -0.7276,0.0661 0.19844,-3.9026 -0.0331,-4.92787 -0.23151,-8.33437 -0.46302,-10.31875 -0.39687,-5.52318 -0.39688,-5.42396 -0.4528,-3.26069 0.56447,-0.95526 0.55362,-0.81414 1.12894,-0.7056 z"
       id="soleus-left" /><path
       style="fill:#cccccc;fill-opacity:1;stroke:#000000;stroke-width:0.564999;stroke-linecap:round;stroke-linejoin:round"
       d="m 129.48047,232.27109 1.35599,1.19063 1.78593,0.69453 1.98438,0.2163 1.38901,-0.31554 1.88516,-0.66144 0.19849,1.48828 0.16536,1.75287 0.42995,1.71979 0.99219,1.62057 1.88515,2.77813 0.69453,1.65364 1.25677,1.2237 2.24896,1.68672 1.38906,1.78594 0.8599,1.68671 -0.16536,1.35599 -0.8599,-0.0331 -0.23151,0.95912 -0.7276,0.19843 -0.79375,1.09141 -0.66146,-0.29766 -0.82683,0.99219 -1.02526,-0.0662 -0.66145,-0.7276 -0.82683,0.99219 -1.04046,0.19844 -1.63844,-0.33073 -1.02526,-1.42214 -0.82683,-0.99219 -0.85989,-0.13229 -1.35599,-1.28984 -0.90074,-1.85209 0.17313,-1.28984 -3.70416,-2.57969 -0.23151,-1.55442 0.0331,-2.8112 0.13229,-3.24115 -0.7276,-0.92604 z"
       id="foot-left" /><path
       style="fill:#cccccc;fill-opacity:1;stroke:#000000;stroke-width:0.564999;stroke-linecap:round;stroke-linejoin:round"
       d="m 129.48047,232.27109 0.0331,-3.63802 -0.7276,-4.29948 -1.09141,-4.3987 -1.12448,-4.36562 -1.19062,-3.14193 -1.52136,-2.14974 0.0331,-3.43958 0.1323,-3.24115 0.42994,-4.06797 0.42995,-4.28588 -0.30827,-3.03971 1.54144,1.51973 1.62829,0.97698 1.25922,0.2171 -0.28422,1.33757 0.46302,2.74505 0.99219,7.73906 0.62838,5.32474 0.52917,3.14193 0.26458,3.57187 0.46302,3.67109 0.42995,4.0349 0.26459,2.57969 0.29765,3.60495 -0.42995,1.48828 -1.78593,-0.69453 z"
       id="gastrocnemius-left" /><path
       style="fill:#cccccc;fill-opacity:1;stroke:#000000;stroke-width:0.564999;stroke-linecap:round;stroke-linejoin:round"
       d="m 132.62245,234.15625 0.42995,-1.48828 -0.21086,-2.55379 -0.35138,-3.63085 -0.89297,-7.70599 -0.26458,-3.57187 -0.84336,-5.8043 -0.97351,-7.80507 -0.33287,-2.59636 -0.46302,-2.74505 0.28416,-1.33757 0.64045,0.0217 2.02994,-0.32566 1.12895,-0.75987 1.05296,-1.45461 0.22633,1.63031 0.2264,1.63034 0.1395,1.90646 0.16145,2.2065 0.29436,4.07259 0.19844,2.7616 0.23151,5.15937 0.17516,3.90369 0.22827,7.44477 0.0596,2.14528 0.0331,4.92787 -0.0992,1.9513 -0.0992,1.9513 -0.33071,0.12473 -1.68669,0.0496 z"
       id="tibialis-left" /><path
       style="fill:#cccccc;stroke:#000000;stroke-width:0.564999;stroke-linecap:round;stroke-linejoin:round"
       d="m 115.13745,55.818637 1.59657,-0.399145 1.47324,-0.162653 1.52076,-0.03235 0.93603,-0.01992 0.76758,-0.01535 0.76759,-0.01537 0.71935,0.293825 1.86245,0.737825 1.292,0.560631 2.58356,1.37465 0.83585,0.770723 0.83586,0.770724 1.35299,1.440847 0.7483,0.790162 0.56453,1.031999 0.54717,0.886958 1.51599,1.61323 1.32825,1.422988 0.77986,0.813043 1.0981,1.021495 0.85757,0.770724 0.83585,0.618749 0.83586,0.618749 0.81414,0.432216 v 0 l -0.94001,0.136609 -0.81406,-0.135675 -0.9266,-0.237977 -1.13168,-0.362993 -1.71298,-0.613756 -1.72411,-0.724485 -2.64931,-1.372124 -1.83578,-1.094838 -2.90921,-2.08421 -1.95395,-1.356167 -1.41187,-1.202338 -1.70143,-1.429766 -1.98868,-1.439362 -1.15065,-0.738159 -2.60445,-1.681572 -0.94964,-0.449765 -0.6177,-0.292556 z"
       id="upper-pectoralis-left" /></g></svg>
